<svg width="489" height="224" viewBox="0 0 489 224" fill="none" xmlns="http://www.w3.org/2000/svg">
<path d="M101.314 51.7627C101.314 54.1712 100.801 56.8616 99.7761 59.8338C98.8025 62.7548 97.4957 65.7783 95.8559 68.9042C94.2673 71.9789 92.3968 75.0793 90.2445 78.2053C88.1434 81.3312 85.9911 84.2778 83.7876 87.0451C85.12 88.3775 86.3242 89.6073 87.4004 90.7347C88.4765 91.8109 89.2452 92.5283 89.7064 92.8871C88.989 94.1169 87.9897 95.9361 86.7086 98.3447C85.4787 100.702 84.1463 103.392 82.7114 106.416C81.3278 109.439 79.8929 112.642 78.4068 116.024C76.972 119.407 75.6652 122.737 74.4866 126.017C73.3079 129.246 72.3343 132.32 71.5656 135.241C70.8481 138.111 70.4894 140.52 70.4894 142.467C70.4894 145.029 70.8225 147.412 71.4887 149.616C72.2061 151.819 73.231 153.741 74.5634 155.381C75.947 157.072 77.6381 158.455 79.6367 159.532C81.6865 160.659 84.0438 161.376 86.7086 161.684L82.942 166.68C82.3271 166.68 81.3791 166.527 80.0979 166.219C78.8168 165.963 77.3819 165.476 75.7933 164.759C74.2047 164.092 72.5392 163.17 70.7969 161.991C69.0545 160.813 67.4147 159.301 65.8773 157.456C64.34 155.663 62.982 153.485 61.8033 150.922C60.6247 148.411 59.8048 145.439 59.3436 142.006C56.8838 144.568 54.219 147.105 51.3493 149.616C48.5308 152.127 45.6098 154.381 42.5863 156.38C39.5628 158.379 36.4881 159.993 33.3622 161.223C30.2874 162.453 27.2896 163.068 24.3686 163.068C22.6775 163.068 20.9352 162.606 19.1416 161.684C17.3992 160.762 15.6569 159.532 13.9145 157.994C12.2234 156.508 10.5836 154.766 8.99499 152.767C7.45763 150.769 6.07401 148.719 4.84412 146.618C3.66547 144.466 2.69181 142.339 1.92313 140.238C1.10321 138.137 0.616375 136.189 0.462639 134.396C0.462639 133.73 0.488262 132.935 0.539507 132.013C0.539507 131.039 0.56513 130.04 0.616375 129.015C0.667621 127.99 0.744489 126.991 0.846979 126.017C0.898225 125.044 0.975093 124.172 1.07758 123.404C1.84626 118.843 3.07615 114.026 4.76725 108.952C6.45835 103.879 8.50816 98.729 10.9167 93.502C13.3765 88.275 16.1437 83.0736 19.2184 77.8978C22.2932 72.722 25.6241 67.7768 29.2113 63.0623C32.7985 58.3477 36.5906 53.9918 40.5878 49.9947C44.5849 45.9463 48.6845 42.4616 52.8866 39.5406C57.14 36.5684 61.4446 34.2367 65.8005 32.5456C70.2076 30.8545 74.589 30.009 78.9449 30.009C80.431 30.009 82.0196 30.3933 83.7107 31.162C85.4018 31.9307 87.0673 32.93 88.7071 34.1599C90.3982 35.3898 91.9868 36.799 93.473 38.3876C95.0103 39.925 96.3427 41.5136 97.4701 43.1534C98.6487 44.742 99.5712 46.305 100.237 47.8424C100.955 49.3285 101.314 50.6353 101.314 51.7627ZM21.217 149.693C22.1907 149.693 23.5999 149.129 25.4448 148.001C27.3408 146.874 29.5188 145.26 31.9785 143.159C34.4896 141.058 37.2056 138.47 40.1265 135.395C43.0475 132.32 45.9941 128.861 48.9664 125.018C51.9386 121.123 54.8596 116.87 57.7293 112.258C60.6503 107.594 63.3663 102.624 65.8773 97.3454L56.8069 88.275C57.6781 87.3526 59.0361 86.1227 60.8809 84.5853C62.7257 83.0479 64.7756 81.2287 67.0304 79.1277C69.2852 77.0266 71.5912 74.6949 73.9485 72.1327C76.357 69.5192 78.5349 66.7263 80.4823 63.7541C82.4808 60.7306 84.1207 57.579 85.4018 54.2993C86.683 50.9683 87.3235 47.5093 87.3235 43.9221C87.3235 41.9235 86.9136 40.4118 86.0936 39.3869C85.3249 38.3107 84.6331 37.7727 84.0182 37.7727C80.9947 37.7727 77.6894 38.8744 74.1022 41.078C70.5663 43.2303 66.9279 46.1769 63.187 49.9178C59.446 53.6075 55.6795 57.9377 51.8874 62.9085C48.1464 67.8793 44.5336 73.1832 41.049 78.8202C37.6155 84.4572 34.3871 90.2479 31.3636 96.1924C28.3914 102.137 25.8035 107.953 23.5999 113.641C21.3964 119.33 19.654 124.736 18.3729 129.861C17.0918 134.985 16.4512 139.495 16.4512 143.389C16.4512 147.591 18.0398 149.693 21.217 149.693ZM130.216 141.621C129.806 141.621 129.422 141.621 129.063 141.621C128.755 141.621 128.422 141.57 128.064 141.468C126.372 143.261 124.553 144.952 122.606 146.541C120.71 148.078 118.788 149.411 116.841 150.538C114.894 151.717 112.972 152.614 111.076 153.228C109.231 153.895 107.463 154.228 105.772 154.228C104.183 154.228 102.518 153.664 100.775 152.537C99.0843 151.409 97.5213 150.077 96.0865 148.54C94.6516 146.951 93.473 145.337 92.5505 143.697C91.6281 142.057 91.1669 140.75 91.1669 139.777C91.1669 137.368 91.4488 134.14 92.0125 130.091C92.5762 125.992 93.5754 121.354 95.0103 116.178C96.4452 110.951 98.3925 105.314 100.852 99.2671C103.363 93.2201 106.541 87.0451 110.384 80.7419C115.457 72.4402 120.326 65.6758 124.989 60.4487C129.703 55.2217 133.982 51.1221 137.826 48.1499C141.72 45.1264 145.128 42.9997 148.049 41.7698C150.97 40.4887 153.199 39.6687 154.737 39.31C155.864 39.31 157.094 39.6175 158.426 40.2324C159.81 40.7961 161.117 41.5904 162.347 42.6154C163.628 43.589 164.781 44.7164 165.806 45.9975C166.831 47.2274 167.548 48.5086 167.958 49.841C167.343 53.4281 166.139 57.0665 164.345 60.7562C162.603 64.3946 160.425 68.0843 157.812 71.8252C155.249 75.5149 152.303 79.2558 148.972 83.0479C145.641 86.8401 142.054 90.6579 138.21 94.5013C134.367 98.2934 130.344 102.086 126.142 105.878C121.991 109.67 117.763 113.462 113.459 117.254C112.69 119.816 111.998 122.276 111.383 124.634C110.768 126.991 110.23 129.169 109.769 131.167C109.359 133.166 109.026 134.934 108.77 136.471C108.565 137.957 108.462 139.162 108.462 140.084C108.462 141.519 108.565 142.493 108.77 143.005C108.975 143.466 109.41 143.697 110.076 143.697C110.743 143.697 111.511 143.441 112.382 142.928C113.305 142.364 114.253 141.621 115.227 140.699C116.2 139.777 117.2 138.726 118.224 137.547C119.249 136.317 120.223 135.036 121.145 133.704C121.094 133.345 121.069 133.012 121.069 132.705C121.069 132.397 121.069 132.115 121.069 131.859C121.069 129.912 121.376 127.99 121.991 126.094C122.606 124.198 123.4 122.404 124.374 120.713C125.348 119.022 126.424 117.434 127.602 115.947C128.832 114.461 130.062 113.129 131.292 111.95C131.907 112.412 132.522 113.026 133.137 113.795C133.803 114.564 134.444 115.461 135.059 116.486C135.725 117.459 136.34 118.484 136.903 119.56C137.518 120.636 138.108 121.713 138.671 122.789C138.415 124.736 137.8 126.76 136.827 128.861C135.904 130.962 134.7 133.063 133.214 135.164H133.521C135.264 135.164 136.929 135.036 138.518 134.78C140.106 134.473 141.644 133.986 143.13 133.32C144.667 132.602 146.179 131.68 147.665 130.552C149.151 129.374 150.663 127.939 152.2 126.248C152.713 126.709 153.328 127.35 154.045 128.169C154.762 128.938 155.377 129.604 155.89 130.168C153.737 132.423 151.611 134.293 149.51 135.779C147.409 137.214 145.308 138.367 143.207 139.238C141.106 140.11 138.979 140.725 136.827 141.083C134.725 141.442 132.522 141.621 130.216 141.621ZM126.065 85.1234C124.733 87.5832 123.426 90.2735 122.145 93.1945C120.864 96.1155 119.634 99.1902 118.455 102.419C124.041 96.9867 129.242 91.6315 134.059 86.3533C138.876 81.0238 143.027 76.053 146.512 71.4409C149.997 66.8288 152.738 62.6779 154.737 58.9882C156.735 55.2473 157.735 52.1982 157.735 49.841C157.735 49.1235 157.478 48.7648 156.966 48.7648C156.197 48.7648 154.891 49.3285 153.046 50.4559C151.201 51.532 148.92 53.4537 146.204 56.221C143.54 58.937 140.491 62.6523 137.057 67.3669C133.675 72.0302 130.011 77.949 126.065 85.1234ZM160.502 142.159C160.502 143.697 161.066 144.466 162.193 144.466C163.372 144.466 164.935 143.543 166.882 141.698C168.829 139.802 170.853 137.419 172.955 134.55C172.852 133.986 172.775 133.499 172.724 133.089C172.724 132.628 172.724 132.218 172.724 131.859C172.724 130.834 172.826 129.63 173.031 128.246C173.288 126.811 173.877 125.197 174.799 123.404C175.414 122.02 176.157 120.662 177.029 119.33C177.746 118.151 178.617 116.895 179.642 115.563C180.667 114.179 181.794 112.898 183.024 111.72L183.485 111.259C183.998 111.873 184.664 112.719 185.484 113.795C186.355 114.82 187.201 115.896 188.021 117.024C188.892 118.1 189.635 119.099 190.25 120.021C190.916 120.944 191.326 121.584 191.48 121.943C191.48 124.147 191.07 126.35 190.25 128.554C189.481 130.757 188.431 132.935 187.098 135.088C190.173 134.883 193.017 134.114 195.631 132.782C198.295 131.398 201.063 129.169 203.932 126.094C204.394 126.555 204.983 127.196 205.7 128.016C206.469 128.784 207.084 129.451 207.545 130.014C205.393 132.269 203.266 134.14 201.165 135.626C199.115 137.112 197.04 138.29 194.939 139.162C192.889 140.033 190.788 140.673 188.636 141.083C186.483 141.442 184.28 141.621 182.025 141.621C180.283 143.466 178.412 145.157 176.414 146.695C174.415 148.232 172.365 149.564 170.264 150.692C168.214 151.819 166.165 152.69 164.115 153.305C162.065 153.92 160.118 154.228 158.273 154.228C156.735 154.228 155.147 153.767 153.507 152.844C151.867 151.922 150.381 150.794 149.049 149.462C147.716 148.078 146.614 146.618 145.743 145.08C144.872 143.543 144.436 142.185 144.436 141.006C144.436 137.112 144.975 133.243 146.051 129.399C147.076 125.556 148.715 121.969 150.97 118.638C153.174 115.256 155.992 112.283 159.426 109.721C162.91 107.159 167.036 105.212 171.801 103.879C171.955 103.777 172.211 103.7 172.57 103.649C172.98 103.597 173.313 103.572 173.569 103.572C174.287 103.572 175.03 103.854 175.799 104.417C176.619 104.93 177.362 105.519 178.028 106.185C178.745 106.851 179.335 107.518 179.796 108.184C180.257 108.799 180.488 109.209 180.488 109.414C180.385 109.67 180.001 110.003 179.335 110.413C178.668 110.772 177.772 111.412 176.644 112.335C175.517 113.257 174.184 114.589 172.647 116.332C171.11 118.023 169.419 120.278 167.574 123.096C164.807 127.247 162.936 131.014 161.962 134.396C160.989 137.727 160.502 140.315 160.502 142.159ZM242.981 143.236C242.981 143.543 243.135 143.697 243.442 143.697C244.006 143.697 244.852 143.364 245.979 142.698C247.158 142.031 248.49 141.186 249.976 140.161C251.462 139.136 253.025 137.983 254.665 136.702C256.305 135.421 257.868 134.191 259.354 133.012C260.84 131.782 262.173 130.655 263.351 129.63C264.581 128.605 265.504 127.836 266.119 127.324C266.58 127.785 267.118 128.374 267.733 129.092C268.399 129.809 269.014 130.476 269.578 131.09C268.45 132.218 267.015 133.576 265.273 135.164C263.582 136.753 261.711 138.419 259.662 140.161C257.663 141.852 255.562 143.543 253.358 145.234C251.206 146.874 249.105 148.36 247.055 149.693C245.005 150.974 243.084 152.024 241.29 152.844C239.497 153.664 238.01 154.074 236.832 154.074C235.961 154.074 234.987 153.792 233.911 153.228C232.835 152.716 231.81 152.024 230.836 151.153C229.914 150.333 229.119 149.411 228.453 148.386C227.838 147.361 227.531 146.387 227.531 145.465C227.531 144.645 227.838 143.082 228.453 140.776C229.068 138.47 229.811 135.779 230.682 132.705C228.376 135.831 226.122 138.598 223.918 141.006C221.714 143.364 219.69 145.388 217.845 147.079C216.001 148.77 214.386 150.128 213.003 151.153C211.619 152.229 210.594 152.998 209.928 153.459C209.518 153.715 209.031 153.895 208.468 153.997C207.904 154.151 207.391 154.228 206.93 154.228C205.957 154.228 204.88 153.92 203.702 153.305C202.523 152.742 201.447 152.024 200.473 151.153C199.448 150.282 198.603 149.308 197.937 148.232C197.219 147.156 196.86 146.131 196.86 145.157C196.86 144.03 197.245 142.159 198.013 139.546C198.731 136.932 199.73 133.806 201.011 130.168C202.241 126.53 203.702 122.456 205.393 117.946C207.084 113.436 208.903 108.696 210.85 103.725C210.953 103.469 211.03 103.367 211.081 103.418C211.184 103.418 211.337 103.418 211.542 103.418C212.516 103.572 213.848 103.982 215.539 104.648C217.23 105.263 218.87 105.955 220.459 106.723C222.099 107.492 223.508 108.235 224.687 108.952C225.865 109.619 226.455 110.08 226.455 110.336C226.301 110.695 225.891 111.54 225.225 112.873C224.61 114.205 223.867 115.819 222.996 117.715C222.176 119.56 221.279 121.584 220.305 123.788C219.383 125.94 218.512 128.016 217.692 130.014C216.923 132.013 216.282 133.832 215.77 135.472C215.258 137.061 215.001 138.239 215.001 139.008C215.001 139.213 215.104 139.315 215.309 139.315C215.719 139.315 216.616 138.777 217.999 137.701C219.383 136.574 221.074 134.831 223.072 132.474C225.122 130.117 227.428 127.093 229.991 123.404C232.553 119.663 235.218 115.179 237.985 109.952L240.137 103.879C240.291 103.469 240.624 103.264 241.136 103.264C241.495 103.264 242.264 103.623 243.442 104.34C244.672 105.007 245.954 105.801 247.286 106.723C248.67 107.594 249.899 108.491 250.976 109.414C252.052 110.285 252.641 110.9 252.744 111.259C252.744 111.412 252.718 111.694 252.667 112.104C252.615 112.463 252.539 112.77 252.436 113.026C251.924 114.41 251.334 116.05 250.668 117.946C250.002 119.791 249.31 121.738 248.593 123.788C247.926 125.787 247.26 127.811 246.594 129.861C245.928 131.91 245.313 133.832 244.749 135.626C244.237 137.368 243.801 138.931 243.442 140.315C243.135 141.647 242.981 142.621 242.981 143.236ZM273.575 154.228C272.704 154.228 271.551 153.818 270.116 152.998C268.732 152.229 267.374 151.256 266.042 150.077C264.709 148.949 263.556 147.771 262.583 146.541C261.609 145.311 261.122 144.261 261.122 143.389C261.122 141.852 261.558 139.418 262.429 136.087C263.249 132.756 264.351 128.964 265.734 124.71C267.118 120.406 268.681 115.819 270.423 110.951C272.217 106.083 274.01 101.317 275.804 96.6536H264.966H264.889C264.837 96.6536 264.812 96.6023 264.812 96.4998C264.812 96.1924 264.94 95.7568 265.196 95.1931C265.401 94.5781 265.683 93.9632 266.042 93.3483C266.349 92.6821 266.733 92.0927 267.195 91.5803C267.605 91.0166 268.015 90.6579 268.425 90.5041L278.417 90.0429C279.852 86.5582 281.21 83.3554 282.491 80.4344C283.824 77.4622 285.002 74.9256 286.027 72.8245C286.284 72.2608 286.54 71.6715 286.796 71.0565C287.104 70.3903 287.513 69.7498 288.026 69.1348C288.59 68.4686 289.307 67.8024 290.178 67.1363C291.101 66.4188 292.331 65.7014 293.868 64.984C294.995 64.4203 296.353 63.8053 297.942 63.1391C299.582 62.4729 301.17 61.858 302.708 61.2943C304.296 60.7306 305.731 60.2694 307.012 59.9107C308.293 59.5007 309.216 59.2957 309.78 59.2957C310.292 59.2957 310.548 59.3982 310.548 59.6032V59.7569C310.548 59.8082 310.497 59.9363 310.395 60.1413C310.087 60.6537 309.523 61.7811 308.703 63.5235C307.884 65.2146 306.859 67.3669 305.629 69.9804C304.45 72.5426 303.118 75.4893 301.632 78.8202C300.197 82.0999 298.711 85.5846 297.173 89.2743L315.622 88.5824C316.134 88.5824 316.288 88.8899 316.083 89.5049C315.878 90.1198 315.493 90.8372 314.93 91.6572C314.366 92.4771 313.7 93.3226 312.931 94.1938C312.214 95.065 311.599 95.7312 311.086 96.1924C310.984 96.2949 310.779 96.3974 310.471 96.4998C310.164 96.6023 309.78 96.6536 309.318 96.6536H294.099C292.254 101.112 290.486 105.622 288.795 110.182C287.104 114.743 285.592 119.073 284.259 123.173C282.927 127.273 281.851 131.039 281.031 134.473C280.262 137.906 279.878 140.725 279.878 142.928C279.878 143.236 280.032 143.389 280.339 143.389C280.903 143.389 281.748 143.082 282.876 142.467C284.003 141.801 285.259 140.955 286.642 139.93C288.077 138.905 289.589 137.778 291.178 136.548C292.766 135.318 294.278 134.114 295.713 132.935C297.148 131.705 298.429 130.604 299.556 129.63C300.735 128.605 301.632 127.836 302.247 127.324C302.708 127.785 303.246 128.374 303.861 129.092C304.527 129.809 305.142 130.476 305.706 131.09C304.578 132.218 303.169 133.601 301.478 135.241C299.787 136.83 297.942 138.47 295.943 140.161C293.996 141.852 291.946 143.543 289.794 145.234C287.693 146.925 285.617 148.437 283.568 149.769C281.569 151.102 279.699 152.178 277.956 152.998C276.214 153.818 274.753 154.228 273.575 154.228ZM393.412 155.688C396.077 148.001 398.69 141.211 401.253 135.318C403.815 129.374 406.198 123.942 408.401 119.022C405.89 122.814 403.533 126.145 401.329 129.015C399.177 131.885 397.281 134.293 395.641 136.241C393.694 138.547 391.9 140.52 390.26 142.159C386.366 145.9 382.881 149.129 379.806 151.845C376.783 154.561 374.067 156.79 371.658 158.532C369.301 160.326 367.226 161.658 365.432 162.529C363.638 163.401 362.05 163.836 360.666 163.836C359.59 163.836 358.437 163.452 357.207 162.683C356.029 161.966 354.85 161.043 353.671 159.916C352.544 158.84 351.468 157.687 350.443 156.457C349.418 155.227 348.521 154.125 347.752 153.152C346.471 151.512 345.754 149.385 345.6 146.772C345.446 144.158 345.37 140.93 345.37 137.086C345.37 131.193 345.856 125.018 346.83 118.561C347.855 112.104 349.29 105.622 351.135 99.1134C352.979 92.554 355.209 86.0458 357.822 79.5889C360.436 73.0807 363.357 66.8544 366.585 60.9099C369.814 54.9142 373.298 49.3029 377.039 44.0758C380.78 38.8488 384.7 34.1599 388.8 30.009C389.876 31.1364 391.106 32.4432 392.49 33.9293C393.873 35.3641 395.257 36.8503 396.64 38.3876C398.075 39.925 399.433 41.4623 400.714 42.9997C402.047 44.4858 403.174 45.7926 404.097 46.92C399.741 50.8659 395.641 55.3242 391.798 60.295C388.006 65.2146 384.521 70.4928 381.344 76.1298C378.167 81.7156 375.322 87.5575 372.811 93.6557C370.3 99.7027 368.174 105.852 366.431 112.104C364.74 118.305 363.408 124.505 362.434 130.706C361.512 136.907 361.025 142.903 360.974 148.693C366.662 145.824 371.889 142.339 376.655 138.239C381.421 134.14 385.776 129.681 389.722 124.864C393.72 119.996 397.332 114.897 400.561 109.567C403.84 104.238 406.787 98.8571 409.401 93.4251C412.065 87.9931 414.423 82.638 416.472 77.3597C418.573 72.0814 420.47 67.1106 422.161 62.4473C423.852 57.784 425.338 53.5306 426.619 49.6872C427.951 45.8438 429.156 42.641 430.232 40.0787C430.744 40.8474 431.436 41.7954 432.307 42.9228C433.178 44.0502 434.101 45.2801 435.075 46.6125C436.099 47.8936 437.124 49.2004 438.149 50.5328C439.225 51.8651 440.199 53.1207 441.07 54.2993C441.993 55.4267 442.787 56.426 443.453 57.2971C444.119 58.1171 444.555 58.6808 444.76 58.9882C441.993 66.1114 439.507 72.8245 437.304 79.1277C435.1 85.3796 433.05 91.4009 431.154 97.1917C429.258 102.931 427.465 108.568 425.773 114.103C424.134 119.586 422.468 125.172 420.777 130.86C419.086 136.497 417.292 142.313 415.396 148.309C413.551 154.253 411.527 160.582 409.324 167.295L393.412 155.688ZM433.383 128.784C434.562 127.657 435.92 126.376 437.457 124.941C438.944 123.506 440.43 121.943 441.916 120.252C443.453 118.561 444.862 116.742 446.143 114.794C447.476 112.847 448.526 110.746 449.295 108.491C449.5 107.313 449.808 106.083 450.218 104.802C450.679 103.469 451.166 102.265 451.678 101.189C452.242 100.113 452.78 99.2159 453.292 98.4984C453.805 97.781 454.266 97.4223 454.676 97.4223C455.291 97.781 456.213 98.4728 457.443 99.4977C458.673 100.471 459.903 101.522 461.133 102.649C462.363 103.777 463.439 104.827 464.361 105.801C465.335 106.723 465.822 107.287 465.822 107.492C465.207 109.849 464.899 111.976 464.899 113.872C464.951 115.768 465.104 117.639 465.361 119.483C465.668 121.328 465.975 123.301 466.283 125.402C466.642 127.452 466.821 129.835 466.821 132.551C466.821 134.191 466.539 136.087 465.975 138.239C465.463 140.34 464.541 142.236 463.208 143.927C465.822 142.39 468.41 140.673 470.972 138.777C473.534 136.83 475.815 135.011 477.813 133.32C480.17 131.321 482.425 129.322 484.578 127.324L488.037 131.09C486.345 132.679 484.501 134.37 482.502 136.164C480.555 137.957 478.505 139.725 476.353 141.468C474.252 143.21 472.099 144.875 469.896 146.464C467.692 148.053 465.514 149.462 463.362 150.692C461.21 151.922 459.134 152.895 457.136 153.613C455.137 154.33 453.267 154.689 451.524 154.689C450.038 154.689 448.398 154.33 446.605 153.613C444.811 152.895 443.12 152.024 441.531 150.999C439.943 149.974 438.559 148.898 437.381 147.771C436.202 146.643 435.51 145.695 435.305 144.927C435.305 144.824 435.408 144.619 435.613 144.312C435.818 143.953 436.074 143.594 436.381 143.236C436.637 142.877 436.919 142.569 437.227 142.313C437.483 142.006 437.688 141.852 437.842 141.852C438.149 141.852 438.764 142.083 439.687 142.544C440.609 143.005 442.146 143.236 444.299 143.236C445.477 143.236 446.477 142.928 447.297 142.313C448.168 141.698 448.885 140.878 449.449 139.853C450.013 138.829 450.422 137.65 450.679 136.317C450.935 134.985 451.063 133.576 451.063 132.09C451.063 129.937 450.961 127.862 450.756 125.863C450.551 123.814 450.32 121.841 450.064 119.945C449.193 120.97 448.193 122.046 447.066 123.173C445.939 124.3 444.785 125.428 443.607 126.555C442.479 127.631 441.326 128.708 440.148 129.784C439.02 130.809 437.995 131.731 437.073 132.551L433.383 128.784Z" fill="white"/>
<path d="M235.56 33L232.932 28.23H232.194V33H229.116V20.364H234.282C235.278 20.364 236.124 20.538 236.82 20.886C237.528 21.234 238.056 21.714 238.404 22.326C238.752 22.926 238.926 23.598 238.926 24.342C238.926 25.182 238.686 25.932 238.206 26.592C237.738 27.252 237.042 27.72 236.118 27.996L239.034 33H235.56ZM232.194 26.052H234.102C234.666 26.052 235.086 25.914 235.362 25.638C235.65 25.362 235.794 24.972 235.794 24.468C235.794 23.988 235.65 23.61 235.362 23.334C235.086 23.058 234.666 22.92 234.102 22.92H232.194V26.052ZM245.736 22.83V25.386H249.858V27.762H245.736V30.534H250.398V33H242.658V20.364H250.398V22.83H245.736ZM262.062 30.768H257.346L256.59 33H253.368L257.94 20.364H261.504L266.076 33H262.818L262.062 30.768ZM261.27 28.392L259.704 23.766L258.156 28.392H261.27ZM274.002 20.364C275.334 20.364 276.498 20.628 277.494 21.156C278.49 21.684 279.258 22.428 279.798 23.388C280.35 24.336 280.626 25.434 280.626 26.682C280.626 27.918 280.35 29.016 279.798 29.976C279.258 30.936 278.484 31.68 277.476 32.208C276.48 32.736 275.322 33 274.002 33H269.268V20.364H274.002ZM273.804 30.336C274.968 30.336 275.874 30.018 276.522 29.382C277.17 28.746 277.494 27.846 277.494 26.682C277.494 25.518 277.17 24.612 276.522 23.964C275.874 23.316 274.968 22.992 273.804 22.992H272.346V30.336H273.804Z" fill="#FFEFEC"/>
</svg>
