<svg width="635" height="185" viewBox="0 0 635 185" fill="none" xmlns="http://www.w3.org/2000/svg">
<path d="M1.65 49V46.2L6.25 45.1V17.9L1.65 16.8V14H19V16.8L14.4 17.9V45.15H23.5L26.9 38.2H29.7L28.2 49H1.65ZM31.9258 36.2C31.9258 32.2667 33.0258 29.1333 35.2258 26.8C37.4591 24.4333 40.4758 23.25 44.2758 23.25C48.1424 23.25 51.0591 24.5667 53.0258 27.2C55.0258 29.8333 56.0258 33.0833 56.0258 36.95H39.6258C39.8591 39.4167 40.7424 41.55 42.2758 43.35C43.8091 45.1167 45.7758 46 48.1758 46C49.9758 46 51.9091 45.6167 53.9758 44.85L55.0258 47.7C51.9258 49.0667 48.8924 49.75 45.9258 49.75C41.6258 49.75 38.2091 48.5 35.6758 46C33.1758 43.4667 31.9258 40.2 31.9258 36.2ZM39.6258 33.85L48.0758 33.3C48.0758 32.5 48.0258 31.7667 47.9258 31.1C47.8258 30.4 47.5424 29.5667 47.0758 28.6C46.2424 27.2 45.2591 26.5 44.1258 26.5C42.7924 26.5 41.6924 27.1833 40.8258 28.55C40.3258 29.3833 39.9924 30.3 39.8258 31.3C39.6591 32.3 39.5924 33.15 39.6258 33.85ZM58.8219 27.5V25.5L67.3219 19.45H69.1719V24.25L75.3719 24V27.5H69.1719V41.8C69.1719 43.4333 69.3552 44.5833 69.7219 45.25C70.0885 45.9167 70.8385 46.25 71.9719 46.25C72.8052 46.25 73.9219 45.95 75.3219 45.35L76.1219 48.15C74.1219 49.2167 72.0052 49.75 69.7719 49.75C64.2385 49.75 61.4719 47.1833 61.4719 42.05V27.5H58.8219ZM78.1684 25.95C80.135 23.9167 81.685 21.75 82.8184 19.45L78.7684 16.9C78.7684 15.5333 79.2184 14.4 80.1184 13.5C81.0517 12.6 82.135 12.15 83.3684 12.15C84.8684 12.15 86.0184 12.5833 86.8184 13.45C87.6184 14.2833 88.0184 15.4833 88.0184 17.05C88.0184 18.9833 87.2017 21.0167 85.5684 23.15C83.9684 25.2833 82.285 26.9167 80.5184 28.05L78.1684 25.95ZM90.8207 48.6V41.45H93.6207L95.4207 46.4C96.6207 46.4667 97.5707 46.5 98.2707 46.5C102.171 46.5 104.121 45.65 104.121 43.95C104.121 43.25 103.771 42.65 103.071 42.15C102.371 41.6167 101.704 41.2 101.071 40.9C100.437 40.6 99.2374 40.0667 97.4707 39.3C95.1707 38.3 93.4874 37.1667 92.4207 35.9C91.3874 34.6 90.8707 32.9333 90.8707 30.9C90.8707 28.4 91.8707 26.5 93.8707 25.2C95.904 23.9 98.554 23.25 101.821 23.25C104.787 23.25 107.337 23.5667 109.471 24.2V31H106.871L105.321 26.6C104.321 26.4333 103.321 26.35 102.321 26.35C99.1207 26.35 97.5207 27.1333 97.5207 28.7C97.5207 29.1 97.6707 29.5167 97.9707 29.95C98.2707 30.3833 98.804 30.8167 99.5707 31.25C100.371 31.6833 101.621 32.2667 103.321 33C106.354 34.3667 108.404 35.7 109.471 37C110.537 38.2667 111.071 39.9833 111.071 42.15C111.071 44.6167 110.054 46.5 108.021 47.8C105.987 49.1 103.287 49.75 99.9207 49.75C96.754 49.75 93.7207 49.3667 90.8207 48.6ZM124.726 49V46.2L129.476 45.05L131.026 17.85L126.626 16.8L126.726 14H139.126L149.426 37.85L160.126 14H172.226V16.8L167.776 17.85L169.526 45.1L174.326 46.2V49H156.776V46.2L161.176 45.15L159.826 24.15L148.626 49.25H145.376L134.526 24L133.376 45.15L137.826 46.2V49H124.726ZM176.5 42.8C176.5 39.9 177.683 37.7 180.05 36.2C182.45 34.6667 186.317 33.9 191.65 33.9V32.4C191.65 31.4 191.633 30.6833 191.6 30.25C191.6 29.7833 191.533 29.2333 191.4 28.6C191.267 27.9667 191.067 27.5167 190.8 27.25C190.567 26.9833 190.2 26.75 189.7 26.55C189.2 26.3167 188.583 26.2 187.85 26.2L181.5 31.7C179.233 30.4 178.1 28.3833 178.1 25.65L179.6 25C180.233 24.7333 181.467 24.3833 183.3 23.95C185.133 23.4833 186.917 23.25 188.65 23.25C195.817 23.25 199.4 26.1167 199.4 31.85V45.25H203.3V47.4C203.133 47.5667 202.9 47.7833 202.6 48.05C202.3 48.3167 201.65 48.6667 200.65 49.1C199.65 49.5333 198.617 49.75 197.55 49.75C195.017 49.75 193.133 48.9 191.9 47.2C189.667 48.9 187.233 49.75 184.6 49.75C182.3 49.75 180.367 49.1667 178.8 48C177.267 46.8333 176.5 45.1 176.5 42.8ZM184.55 42.35C184.55 43.3167 184.867 44.0833 185.5 44.65C186.167 45.2167 186.967 45.5 187.9 45.5C189.4 45.5 190.65 44.95 191.65 43.85V37C189.783 37 188.133 37.5 186.7 38.5C185.267 39.4667 184.55 40.75 184.55 42.35ZM204.363 49V46.35L208.613 45.35V13.55H204.363V10.9L212.363 9H216.313V45.35L219.563 46.35V49H204.363ZM217.213 36.95L226.013 27.4L223.013 26.65V24H234.763V26.65L230.213 27.6L224.463 33.95L231.513 45.4L235.513 46.35V49H224.513L217.213 36.95ZM236.418 36.2C236.418 32.2667 237.518 29.1333 239.718 26.8C241.951 24.4333 244.968 23.25 248.768 23.25C252.635 23.25 255.551 24.5667 257.518 27.2C259.518 29.8333 260.518 33.0833 260.518 36.95H244.118C244.351 39.4167 245.235 41.55 246.768 43.35C248.301 45.1167 250.268 46 252.668 46C254.468 46 256.401 45.6167 258.468 44.85L259.518 47.7C256.418 49.0667 253.385 49.75 250.418 49.75C246.118 49.75 242.701 48.5 240.168 46C237.668 43.4667 236.418 40.2 236.418 36.2ZM244.118 33.85L252.568 33.3C252.568 32.5 252.518 31.7667 252.418 31.1C252.318 30.4 252.035 29.5667 251.568 28.6C250.735 27.2 249.751 26.5 248.618 26.5C247.285 26.5 246.185 27.1833 245.318 28.55C244.818 29.3833 244.485 30.3 244.318 31.3C244.151 32.3 244.085 33.15 244.118 33.85ZM272.597 16.8V14H288.997V16.8L285.747 17.45L292.897 27.95L299.297 17.8L295.597 16.8V14H308.347V16.8L303.747 17.9L294.747 32.2V45.1L299.347 46.2V49H281.997V46.2L286.597 45.1V32.15L276.647 17.8L272.597 16.8ZM318.421 49.75C316.521 49.75 314.738 49.4167 313.071 48.75C311.438 48.0833 310.021 47.1667 308.821 46C307.621 44.8333 306.671 43.4333 305.971 41.8C305.271 40.1667 304.921 38.3833 304.921 36.45C304.921 34.5167 305.271 32.75 305.971 31.15C306.671 29.5167 307.621 28.1167 308.821 26.95C310.021 25.7833 311.438 24.8833 313.071 24.25C314.738 23.5833 316.521 23.25 318.421 23.25C320.321 23.25 322.088 23.5833 323.721 24.25C325.355 24.8833 326.771 25.7833 327.971 26.95C329.205 28.1167 330.155 29.5167 330.821 31.15C331.521 32.75 331.871 34.5167 331.871 36.45C331.871 38.35 331.521 40.1167 330.821 41.75C330.155 43.3833 329.205 44.8 327.971 46C326.771 47.1667 325.355 48.0833 323.721 48.75C322.088 49.4167 320.321 49.75 318.421 49.75ZM312.971 36.45C312.971 39.5833 313.421 42.05 314.321 43.85C315.255 45.6167 316.621 46.5 318.421 46.5C320.221 46.5 321.571 45.6167 322.471 43.85C323.405 42.05 323.871 39.5833 323.871 36.45C323.871 33.35 323.405 30.9167 322.471 29.15C321.571 27.3833 320.221 26.5 318.421 26.5C316.621 26.5 315.255 27.3833 314.321 29.15C313.421 30.9167 312.971 33.35 312.971 36.45ZM333.8 26.65V24H345.75V41.25C345.75 42.95 345.95 44.1333 346.35 44.8C346.783 45.4333 347.633 45.75 348.9 45.75C349.866 45.75 350.866 45.5 351.9 45C352.933 44.5 353.766 43.8333 354.4 43V27.65L351.15 26.65V24H362.15V45.25H366.05V47.4C365.316 47.9 364.716 48.2667 364.25 48.5C363.816 48.7 363.316 48.9 362.75 49.1C362.216 49.3333 361.65 49.5 361.05 49.6C360.483 49.7 359.95 49.75 359.45 49.75C357.05 49.75 355.366 48.6667 354.4 46.5C352.033 48.6667 349.133 49.75 345.7 49.75C340.6 49.75 338.05 47.1333 338.05 41.9V27.65L333.8 26.65ZM368.199 49V46.35L372.449 45.35V28.55H368.199V25.9L376.199 24H380.149V27C382.649 24.5 385.616 23.25 389.049 23.25C389.249 23.8833 389.349 24.5833 389.349 25.35C389.349 26.8833 389.183 28.3167 388.849 29.65L382.549 28.6C381.749 28.9667 380.949 29.5 380.149 30.2V45.35L385.399 46.35V49H368.199ZM1.65 114V111.2L6.25 110.1V82.9L1.65 81.8V79H10.25L31.7 102.5V82.9L27.1 81.8V79H40.45V81.8L35.85 82.9V114H31L10.25 91.3V110.1L14.85 111.2V114H1.65ZM42.1797 101.2C42.1797 97.2667 43.2797 94.1333 45.4797 91.8C47.713 89.4333 50.7297 88.25 54.5297 88.25C58.3964 88.25 61.313 89.5667 63.2797 92.2C65.2797 94.8333 66.2797 98.0833 66.2797 101.95H49.8797C50.113 104.417 50.9964 106.55 52.5297 108.35C54.063 110.117 56.0297 111 58.4297 111C60.2297 111 62.163 110.617 64.2297 109.85L65.2797 112.7C62.1797 114.067 59.1464 114.75 56.1797 114.75C51.8797 114.75 48.463 113.5 45.9297 111C43.4297 108.467 42.1797 105.2 42.1797 101.2ZM49.8797 98.85L58.3297 98.3C58.3297 97.5 58.2797 96.7667 58.1797 96.1C58.0797 95.4 57.7964 94.5667 57.3297 93.6C56.4964 92.2 55.513 91.5 54.3797 91.5C53.0464 91.5 51.9464 92.1833 51.0797 93.55C50.5797 94.3833 50.2464 95.3 50.0797 96.3C49.913 97.3 49.8464 98.15 49.8797 98.85ZM67.2957 114V111.35L71.6457 110.5L78.2957 102.6L71.8957 92.5L67.9457 91.65V89H83.6957V91.65L81.0957 92.15L84.3457 97.2L88.3457 92.45L85.5957 91.65V89H96.7957V91.65L92.4457 92.6L86.1457 100.05L92.8457 110.6L96.9457 111.35V114H80.7957V111.35L83.4957 110.95L80.0957 105.45L75.6957 110.65L78.3457 111.35V114H67.2957ZM99.0074 92.5V90.5L107.507 84.45H109.357V89.25L115.557 89V92.5H109.357V106.8C109.357 108.433 109.541 109.583 109.907 110.25C110.274 110.917 111.024 111.25 112.157 111.25C112.991 111.25 114.107 110.95 115.507 110.35L116.307 113.15C114.307 114.217 112.191 114.75 109.957 114.75C104.424 114.75 101.657 112.183 101.657 107.05V92.5H99.0074ZM129.287 114V111.2L133.887 110.1V82.9L129.287 81.8V79H146.637V81.8L142.037 82.9V94.4H154.487V82.9L149.887 81.8V79H167.237V81.8L162.637 82.9V110.1L167.237 111.2V114H149.887V111.2L154.487 110.1V98.25H142.037V110.1L146.637 111.2V114H129.287ZM182.923 114.75C181.023 114.75 179.24 114.417 177.573 113.75C175.94 113.083 174.523 112.167 173.323 111C172.123 109.833 171.173 108.433 170.473 106.8C169.773 105.167 169.423 103.383 169.423 101.45C169.423 99.5167 169.773 97.75 170.473 96.15C171.173 94.5167 172.123 93.1167 173.323 91.95C174.523 90.7833 175.94 89.8833 177.573 89.25C179.24 88.5833 181.023 88.25 182.923 88.25C184.823 88.25 186.59 88.5833 188.223 89.25C189.857 89.8833 191.273 90.7833 192.473 91.95C193.707 93.1167 194.657 94.5167 195.323 96.15C196.023 97.75 196.373 99.5167 196.373 101.45C196.373 103.35 196.023 105.117 195.323 106.75C194.657 108.383 193.707 109.8 192.473 111C191.273 112.167 189.857 113.083 188.223 113.75C186.59 114.417 184.823 114.75 182.923 114.75ZM177.473 101.45C177.473 104.583 177.923 107.05 178.823 108.85C179.757 110.617 181.123 111.5 182.923 111.5C184.723 111.5 186.073 110.617 186.973 108.85C187.907 107.05 188.373 104.583 188.373 101.45C188.373 98.35 187.907 95.9167 186.973 94.15C186.073 92.3833 184.723 91.5 182.923 91.5C181.123 91.5 179.757 92.3833 178.823 94.15C177.923 95.9167 177.473 98.35 177.473 101.45ZM198.504 114V111.35L202.754 110.35V78.55H198.504V75.9L206.504 74H210.454V110.35L214.704 111.35V114H198.504ZM216.93 114V111.35L221.18 110.35V93.55H216.93V90.9L224.93 89H228.88V110.35L233.13 111.35V114H216.93ZM220.38 81.3C220.38 80 220.83 78.9167 221.73 78.05C222.63 77.15 223.73 76.7 225.03 76.7C226.363 76.7 227.463 77.15 228.33 78.05C229.23 78.9167 229.68 80 229.68 81.3C229.68 82.6333 229.23 83.75 228.33 84.65C227.463 85.55 226.363 86 225.03 86C223.73 86 222.63 85.55 221.73 84.65C220.83 83.75 220.38 82.6333 220.38 81.3ZM235.441 102.4C235.441 97.9 236.858 94.4167 239.691 91.95C242.558 89.4833 246.041 88.25 250.141 88.25C251.175 88.25 252.141 88.35 253.041 88.55V78.55H248.791V75.9L256.791 74H260.791V110.25H264.691V112.4C264.491 112.567 264.208 112.783 263.841 113.05C263.508 113.317 262.825 113.667 261.791 114.1C260.758 114.533 259.775 114.75 258.841 114.75C257.441 114.75 256.258 114.417 255.291 113.75C254.358 113.083 253.691 112.367 253.291 111.6C251.458 113.7 249.208 114.75 246.541 114.75C243.508 114.75 240.891 113.7 238.691 111.6C236.525 109.467 235.441 106.4 235.441 102.4ZM243.341 102.2C243.341 104.933 243.925 107 245.091 108.4C246.291 109.8 247.475 110.5 248.641 110.5C250.308 110.5 251.775 109.883 253.041 108.65V91.85C252.108 91.6167 251.291 91.5 250.591 91.5C248.391 91.5 246.625 92.3833 245.291 94.15C243.991 95.8833 243.341 98.5667 243.341 102.2ZM266.881 107.8C266.881 104.9 268.064 102.7 270.431 101.2C272.831 99.6667 276.698 98.9 282.031 98.9V97.4C282.031 96.4 282.014 95.6833 281.981 95.25C281.981 94.7833 281.914 94.2333 281.781 93.6C281.648 92.9667 281.448 92.5167 281.181 92.25C280.948 91.9833 280.581 91.75 280.081 91.55C279.581 91.3167 278.964 91.2 278.231 91.2L271.881 96.7C269.614 95.4 268.481 93.3833 268.481 90.65L269.981 90C270.614 89.7333 271.848 89.3833 273.681 88.95C275.514 88.4833 277.298 88.25 279.031 88.25C286.198 88.25 289.781 91.1167 289.781 96.85V110.25H293.681V112.4C293.514 112.567 293.281 112.783 292.981 113.05C292.681 113.317 292.031 113.667 291.031 114.1C290.031 114.533 288.998 114.75 287.931 114.75C285.398 114.75 283.514 113.9 282.281 112.2C280.048 113.9 277.614 114.75 274.981 114.75C272.681 114.75 270.748 114.167 269.181 113C267.648 111.833 266.881 110.1 266.881 107.8ZM274.931 107.35C274.931 108.317 275.248 109.083 275.881 109.65C276.548 110.217 277.348 110.5 278.281 110.5C279.781 110.5 281.031 109.95 282.031 108.85V102C280.164 102 278.514 102.5 277.081 103.5C275.648 104.467 274.931 105.75 274.931 107.35ZM292.865 91.65V89H308.315V91.65L305.015 92.25L311.465 105.1L316.165 92.6L312.365 91.65V89H323.965V91.65L319.815 92.8L305.865 128.95H304.965C303.965 128.95 303.015 128.733 302.115 128.3C301.249 127.867 300.632 127.333 300.265 126.7L307.515 115.15L296.615 92.7L292.865 91.65ZM334.412 114V111.2L339.312 110.05L351.262 78.75H355.612L366.812 110.05L371.612 111.2V114H354.662V111.2L358.212 110.35L356.062 104.35H345.562L343.312 110.2L347.512 111.2V114H334.412ZM346.912 100.9H354.812L350.912 90.25L346.912 100.9ZM373.033 114V111.35L377.283 110.35V93.55H373.033V90.9L381.033 89H384.983V91.05C387.25 89.1833 389.717 88.25 392.383 88.25C395.75 88.25 398.217 89.45 399.783 91.85C402.417 89.45 405.283 88.25 408.383 88.25C410.983 88.25 413.05 88.9833 414.583 90.45C416.15 91.9167 416.933 93.8 416.933 96.1V110.35L421.183 111.35V114H405.983V111.35L409.233 110.35V96.75C409.233 95.2167 408.933 94.15 408.333 93.55C407.733 92.95 406.8 92.65 405.533 92.65C404.133 92.65 402.567 93.3167 400.833 94.65C400.933 95.15 400.983 95.6333 400.983 96.1V110.35L404.233 111.35V114H389.983V111.35L393.233 110.35V96.75C393.233 95.2167 392.933 94.15 392.333 93.55C391.733 92.95 390.817 92.65 389.583 92.65C388.217 92.65 386.683 93.25 384.983 94.45V110.35L388.233 111.35V114H373.033ZM422.984 107.8C422.984 104.9 424.168 102.7 426.534 101.2C428.934 99.6667 432.801 98.9 438.134 98.9V97.4C438.134 96.4 438.118 95.6833 438.084 95.25C438.084 94.7833 438.018 94.2333 437.884 93.6C437.751 92.9667 437.551 92.5167 437.284 92.25C437.051 91.9833 436.684 91.75 436.184 91.55C435.684 91.3167 435.068 91.2 434.334 91.2L427.984 96.7C425.718 95.4 424.584 93.3833 424.584 90.65L426.084 90C426.718 89.7333 427.951 89.3833 429.784 88.95C431.618 88.4833 433.401 88.25 435.134 88.25C442.301 88.25 445.884 91.1167 445.884 96.85V110.25H449.784V112.4C449.618 112.567 449.384 112.783 449.084 113.05C448.784 113.317 448.134 113.667 447.134 114.1C446.134 114.533 445.101 114.75 444.034 114.75C441.501 114.75 439.618 113.9 438.384 112.2C436.151 113.9 433.718 114.75 431.084 114.75C428.784 114.75 426.851 114.167 425.284 113C423.751 111.833 422.984 110.1 422.984 107.8ZM431.034 107.35C431.034 108.317 431.351 109.083 431.984 109.65C432.651 110.217 433.451 110.5 434.384 110.5C435.884 110.5 437.134 109.95 438.134 108.85V102C436.268 102 434.618 102.5 433.184 103.5C431.751 104.467 431.034 105.75 431.034 107.35ZM451.498 114V111.5L464.148 92.2H457.348L454.948 97.25H452.648L453.198 89H473.598V91.45L461.048 110.75H468.548L471.148 105.2H473.598L473.098 114H451.498ZM477.037 114V111.35L481.287 110.35V93.55H477.037V90.9L485.037 89H488.987V110.35L493.237 111.35V114H477.037ZM480.487 81.3C480.487 80 480.937 78.9167 481.837 78.05C482.737 77.15 483.837 76.7 485.137 76.7C486.47 76.7 487.57 77.15 488.437 78.05C489.337 78.9167 489.787 80 489.787 81.3C489.787 82.6333 489.337 83.75 488.437 84.65C487.57 85.55 486.47 86 485.137 86C483.837 86 482.737 85.55 481.837 84.65C480.937 83.75 480.487 82.6333 480.487 81.3ZM495.494 114V111.35L499.744 110.35V93.55H495.494V90.9L503.494 89H507.444V91.45C509.477 89.3167 511.994 88.25 514.994 88.25C516.294 88.25 517.461 88.45 518.494 88.85C519.561 89.2167 520.444 89.75 521.144 90.45C521.877 91.15 522.444 91.9833 522.844 92.95C523.244 93.9167 523.444 94.9667 523.444 96.1V110.35L527.694 111.35V114H512.494V111.35L515.744 110.35V97.5C515.744 96.4667 515.677 95.6333 515.544 95C515.444 94.3667 515.261 93.8833 514.994 93.55C514.727 93.1833 514.361 92.95 513.894 92.85C513.461 92.7167 512.911 92.65 512.244 92.65C510.977 92.65 509.377 93.3833 507.444 94.85V110.35L510.694 111.35V114H495.494ZM528.427 121.6C528.427 118.933 529.911 116.817 532.877 115.25C531.977 114.617 531.261 113.8 530.727 112.8C530.527 112.4 530.361 111.933 530.227 111.4C530.127 110.867 530.111 110.317 530.177 109.75L535.927 104.8C534.194 104.033 532.844 103 531.877 101.7C530.911 100.367 530.427 98.9 530.427 97.3C530.427 94.9 531.561 92.8667 533.827 91.2C536.094 89.5 538.961 88.65 542.427 88.65C545.427 88.65 548.027 89.3167 550.227 90.65L558.027 87.75C558.427 88.55 558.627 89.4333 558.627 90.4C558.627 91.5333 558.561 92.3833 558.427 92.95H552.927C553.994 94.35 554.527 95.8 554.527 97.3C554.527 99.7667 553.427 101.833 551.227 103.5C549.061 105.133 546.127 105.95 542.427 105.95C541.227 105.95 540.344 105.933 539.777 105.9L537.577 108.95C537.977 109.617 538.527 110.033 539.227 110.2C539.927 110.333 541.111 110.4 542.777 110.4H546.427C549.727 110.4 552.261 111.133 554.027 112.6C555.827 114.067 556.727 116.117 556.727 118.75C556.727 121.317 555.477 123.55 552.977 125.45C550.511 127.383 547.044 128.35 542.577 128.35C533.144 128.35 528.427 126.1 528.427 121.6ZM536.027 120.5C536.027 123.567 538.161 125.1 542.427 125.1C545.227 125.1 547.377 124.633 548.877 123.7C550.377 122.767 551.127 121.6 551.127 120.2C551.127 119.133 550.694 118.317 549.827 117.75C548.961 117.217 547.377 116.95 545.077 116.95H537.127C536.394 117.983 536.027 119.167 536.027 120.5ZM542.427 102.75C544.061 102.75 545.277 102.25 546.077 101.25C546.877 100.217 547.277 98.9 547.277 97.3C547.277 95.7 546.877 94.3833 546.077 93.35C545.277 92.2833 544.061 91.75 542.427 91.75C540.727 91.75 539.511 92.2833 538.777 93.35C538.044 94.3833 537.677 95.7 537.677 97.3C537.677 98.9 538.044 100.217 538.777 101.25C539.511 102.25 540.727 102.75 542.427 102.75Z" fill="white"/>
<path fill-rule="evenodd" clip-rule="evenodd" d="M558.065 136.857C514.36 133.089 501.848 132.181 477.509 131.011C452.287 129.798 434.203 129.281 405.461 128.949C398.799 128.872 391.671 128.721 383.321 128.479C352.65 127.593 346.667 127.569 336.653 128.292C331.692 128.651 327.415 128.817 325.034 128.744C322.918 128.68 322.528 128.731 322.494 129.075C322.465 129.379 325.803 129.972 327.658 129.992C328.323 129.999 330.123 130.033 331.658 130.068C333.193 130.103 336.577 130.125 339.177 130.117C345.301 130.099 348.231 130.19 358.7 130.724C376.299 131.621 389.61 132.134 405.981 132.547C412.014 132.699 420.025 132.901 423.782 132.996C452.281 133.714 487.027 135.259 508.206 136.75C533.907 138.559 613.549 145.676 612.157 146.038C611.605 146.182 602.358 146.754 596.824 146.986C591.742 147.199 583.266 147.396 572.848 147.543C567.908 147.612 561.127 147.714 557.779 147.769C545.203 147.975 541.063 148.016 533.931 148.005C501.072 147.952 479.303 148.572 448.909 150.424C430.842 151.525 415.944 153.356 399.209 156.531C389.694 158.335 388.746 158.728 389.488 160.556C389.971 161.745 394.625 162.344 404.121 162.439C421.475 162.614 437.758 163.023 453.508 163.68C463.386 164.092 464.697 164.128 474.769 164.257C478.531 164.306 485.026 164.473 489.202 164.629L496.795 164.914L486.778 163.765C471.599 162.024 455.287 160.459 449.888 160.226C432.012 159.456 422.268 159.252 406.314 159.314C402.511 159.329 399.307 159.299 399.194 159.248C398.1 158.753 423.989 155.381 436.278 154.419C464.017 152.246 492.45 151.375 536.017 151.362C539.996 151.361 547.989 151.29 553.781 151.204C559.572 151.117 568.7 150.983 574.066 150.904C594.719 150.602 600.889 150.342 620.847 148.931C633.629 148.028 633.698 148.016 634.176 146.653C634.702 145.155 633.762 144.361 630.895 143.882C628.171 143.427 576.83 138.475 558.065 136.857ZM497.624 164.838C497.858 164.908 498.202 164.939 498.389 164.908C498.577 164.877 498.386 164.82 497.965 164.781C497.544 164.742 497.391 164.768 497.624 164.838Z" fill="white"/>
</svg>
