<svg width="397" height="99" viewBox="0 0 397 99" fill="none" xmlns="http://www.w3.org/2000/svg">
<path fill-rule="evenodd" clip-rule="evenodd" d="M349.962 78.0175C322.552 78.2713 304.386 79.2499 268.056 82.43C264.861 82.7095 259.866 83.1452 256.955 83.3981C232.98 85.4808 199.518 90.6463 190.311 93.6859C188.402 94.3163 185 96.0667 185 96.4189C185 96.4772 185.159 96.3858 185.784 95.9682C188.665 94.0427 196.394 92.3208 215.427 89.3644C226.67 87.618 238.956 86.0413 249.075 85.0464C256.8 84.2868 293.454 81.3312 294.687 81.3686C294.94 81.3762 293.542 81.5281 291.581 81.7061C270.511 83.6185 263.336 84.3938 250.628 86.1322C240.782 87.479 235.005 88.4667 220.245 91.3279C214.691 92.4042 214.852 92.3643 214.763 92.6968C214.54 93.539 215.252 93.5578 219.813 92.8297C250.744 87.8926 269.204 86.0972 298.138 85.212C305.923 84.9738 332.891 84.7558 332.419 84.9348C332.149 85.0371 324.038 85.6638 310.447 86.6324C280.038 88.7998 260.582 91.374 239.16 96.0639C233.221 97.3642 232.155 97.7734 232.673 98.5542C233.221 99.3786 236.606 99.1441 253.159 97.1347C277.949 94.1251 287.154 93.3191 306.996 92.4204C311.608 92.2115 319.531 91.9981 319.305 92.0889C319.241 92.1142 314.246 92.6745 308.204 93.3339C293.085 94.9838 283.384 96.1934 283.045 96.4708C282.523 96.8985 282.674 97.5154 283.345 97.6995C284.165 97.9241 286.481 97.8012 291.811 97.2504C303.371 96.0559 314.923 95.4012 332.005 94.9722C334.561 94.9079 337.538 94.8069 338.62 94.7477C341.136 94.6098 345.124 94.6102 346.971 94.7484C347.762 94.8076 348.745 94.8806 349.157 94.9107C350.716 95.0245 345.308 94.2912 343.002 94.0761C337.223 93.5371 329.689 93.4165 320.755 93.7198C318.705 93.7894 317.011 93.8287 316.989 93.8074C316.943 93.7624 319.02 93.5528 329.083 92.5869C336.798 91.8462 336.991 91.8135 337.285 91.2018C337.472 90.8137 337.285 90.352 336.848 90.1185C336.516 89.9418 325.249 89.9976 319.132 90.2061C304.467 90.7062 296.696 91.1325 286.922 91.9731C277.032 92.8237 270.462 93.5839 254.031 95.7792C244.027 97.1157 238.759 97.7587 236.996 97.8587L235.903 97.9206L237.226 97.5827C241.307 96.5405 254.91 93.998 262.649 92.8309C278.726 90.4066 289.713 89.2942 314.358 87.5956C335.067 86.1684 339.308 85.7406 339.628 85.0474C339.973 84.3005 339.357 83.8567 337.653 83.6236C335.329 83.3056 306.639 83.3868 296.47 83.74C286.499 84.0865 274.658 84.7572 268.401 85.33C267.737 85.3909 267.012 85.4341 266.791 85.4262C265.163 85.3678 287.564 83.2223 300.381 82.2091C314.422 81.0991 325.531 80.4584 340.931 79.8703C350.889 79.4901 376.308 79.6492 386.601 80.1562C396.136 80.626 396.478 80.6323 396.767 80.3472C397.068 80.0498 397.077 79.8292 396.797 79.5532C396.441 79.202 394.435 79.016 389.879 78.9115C388.203 78.8731 384.501 78.7174 381.654 78.5655C378.807 78.4138 375.287 78.2382 373.832 78.1753C371.086 78.0566 356.29 77.9589 349.962 78.0175ZM299.262 81.0882C299.184 81.1193 299.029 81.1212 298.917 81.0924C298.805 81.0636 298.869 81.0381 299.058 81.0359C299.248 81.0336 299.34 81.0571 299.262 81.0882ZM297.766 81.2072C297.624 81.2341 297.365 81.2347 297.191 81.2088C297.016 81.1826 297.131 81.1606 297.448 81.1597C297.764 81.1589 297.907 81.1803 297.766 81.2072ZM296.211 81.322C296.037 81.348 295.753 81.348 295.578 81.322C295.404 81.296 295.547 81.2748 295.895 81.2748C296.243 81.2748 296.385 81.296 296.211 81.322ZM266.129 85.521C265.987 85.548 265.754 85.548 265.612 85.521C265.469 85.4939 265.586 85.4717 265.87 85.4717C266.155 85.4717 266.272 85.4939 266.129 85.521ZM264.864 85.6295C264.785 85.6611 264.655 85.6611 264.576 85.6295C264.497 85.5981 264.562 85.5723 264.72 85.5723C264.878 85.5723 264.943 85.5981 264.864 85.6295ZM350.163 95.0513C350.242 95.0829 350.372 95.0829 350.451 95.0513C350.53 95.0199 350.465 94.9941 350.307 94.9941C350.149 94.9941 350.084 95.0199 350.163 95.0513Z" fill="white"/>
<path d="M1.65 72V69.2L6.25 68.1V40.9L1.65 39.8V37H28.2V47.25H25.25L23.25 40.85H14.4V52.45L23.7 51.6V56.55L14.4 55.8V68.15H23.35L26.75 61.2H29.7L28.2 72H1.65ZM31.9441 72V69.35L36.2941 68.5L42.9441 60.6L36.5441 50.5L32.5941 49.65V47H48.3441V49.65L45.7441 50.15L48.9941 55.2L52.9941 50.45L50.2441 49.65V47H61.4441V49.65L57.0941 50.6L50.7941 58.05L57.4941 68.6L61.5941 69.35V72H45.4441V69.35L48.1441 68.95L44.7441 63.45L40.3441 68.65L42.9941 69.35V72H31.9441ZM63.0059 84.35L67.2559 83.35V51.55H63.0059V48.9L71.0059 47H74.9559V49.4C76.9892 47.3 79.4225 46.25 82.2559 46.25C83.6559 46.25 84.9725 46.5333 86.2059 47.1C87.4725 47.6333 88.5725 48.4333 89.5059 49.5C90.4392 50.5333 91.1725 51.8167 91.7059 53.35C92.2725 54.8833 92.5559 56.6167 92.5559 58.55C92.5559 60.8167 92.1559 62.8333 91.3559 64.6C90.5892 66.3667 89.5392 67.85 88.2059 69.05C86.8725 70.25 85.3059 71.1667 83.5059 71.8C81.7392 72.4333 79.8559 72.75 77.8559 72.75C76.5559 72.75 75.5892 72.65 74.9559 72.45V83.35L80.2059 84.35V87H63.0059V84.35ZM74.9559 69C75.7225 69.3333 76.5392 69.5 77.4059 69.5C79.5392 69.5 81.2725 68.6 82.6059 66.8C83.9392 64.9667 84.6059 62.2833 84.6059 58.75C84.6059 56.05 84.1392 54.05 83.2059 52.75C82.2725 51.45 80.9892 50.8 79.3559 50.8C78.6225 50.8 77.8225 50.9667 76.9559 51.3C76.1225 51.6333 75.4559 52.05 74.9559 52.55V69ZM94.6953 72V69.35L98.9453 68.35V36.55H94.6953V33.9L102.695 32H106.645V68.35L110.895 69.35V72H94.6953ZM126.478 72.75C124.578 72.75 122.795 72.4167 121.128 71.75C119.495 71.0833 118.078 70.1667 116.878 69C115.678 67.8333 114.728 66.4333 114.028 64.8C113.328 63.1667 112.978 61.3833 112.978 59.45C112.978 57.5167 113.328 55.75 114.028 54.15C114.728 52.5167 115.678 51.1167 116.878 49.95C118.078 48.7833 119.495 47.8833 121.128 47.25C122.795 46.5833 124.578 46.25 126.478 46.25C128.378 46.25 130.145 46.5833 131.778 47.25C133.411 47.8833 134.828 48.7833 136.028 49.95C137.261 51.1167 138.211 52.5167 138.878 54.15C139.578 55.75 139.928 57.5167 139.928 59.45C139.928 61.35 139.578 63.1167 138.878 64.75C138.211 66.3833 137.261 67.8 136.028 69C134.828 70.1667 133.411 71.0833 131.778 71.75C130.145 72.4167 128.378 72.75 126.478 72.75ZM121.028 59.45C121.028 62.5833 121.478 65.05 122.378 66.85C123.311 68.6167 124.678 69.5 126.478 69.5C128.278 69.5 129.628 68.6167 130.528 66.85C131.461 65.05 131.928 62.5833 131.928 59.45C131.928 56.35 131.461 53.9167 130.528 52.15C129.628 50.3833 128.278 49.5 126.478 49.5C124.678 49.5 123.311 50.3833 122.378 52.15C121.478 53.9167 121.028 56.35 121.028 59.45ZM143.102 72V69.35L147.352 68.35V51.55H143.102V48.9L151.102 47H155.052V50C157.552 47.5 160.518 46.25 163.952 46.25C164.152 46.8833 164.252 47.5833 164.252 48.35C164.252 49.8833 164.085 51.3167 163.752 52.65L157.452 51.6C156.652 51.9667 155.852 52.5 155.052 53.2V68.35L160.302 69.35V72H143.102ZM166.447 59.2C166.447 55.2667 167.547 52.1333 169.747 49.8C171.981 47.4333 174.997 46.25 178.797 46.25C182.664 46.25 185.581 47.5667 187.547 50.2C189.547 52.8333 190.547 56.0833 190.547 59.95H174.147C174.381 62.4167 175.264 64.55 176.797 66.35C178.331 68.1167 180.297 69 182.697 69C184.497 69 186.431 68.6167 188.497 67.85L189.547 70.7C186.447 72.0667 183.414 72.75 180.447 72.75C176.147 72.75 172.731 71.5 170.197 69C167.697 66.4667 166.447 63.2 166.447 59.2ZM174.147 56.85L182.597 56.3C182.597 55.5 182.547 54.7667 182.447 54.1C182.347 53.4 182.064 52.5667 181.597 51.6C180.764 50.2 179.781 49.5 178.647 49.5C177.314 49.5 176.214 50.1833 175.347 51.55C174.847 52.3833 174.514 53.3 174.347 54.3C174.181 55.3 174.114 56.15 174.147 56.85ZM205.226 54.5C205.226 48.6667 206.776 44.1667 209.876 41C213.01 37.8333 217.576 36.25 223.576 36.25C225.176 36.25 226.91 36.45 228.776 36.85C230.643 37.2167 232.16 37.6667 233.326 38.2V47.45H230.526L228.326 40.4C227.193 40.2 226.243 40.1 225.476 40.1C221.31 40.1 218.276 41.2667 216.376 43.6C214.476 45.9 213.526 49.5333 213.526 54.5C213.526 59.4333 214.426 63.0667 216.226 65.4C218.026 67.7333 220.826 68.9 224.626 68.9C225.426 68.9 226.36 68.8167 227.426 68.65L231.126 61.1H233.926L232.626 70.3C231.46 70.9333 229.96 71.5 228.126 72C226.326 72.5 224.526 72.75 222.726 72.75C217.126 72.75 212.81 71.1667 209.776 68C206.743 64.8 205.226 60.3 205.226 54.5ZM237.389 72V69.35L241.639 68.35V51.55H237.389V48.9L245.389 47H249.339V68.35L253.589 69.35V72H237.389ZM240.839 39.3C240.839 38 241.289 36.9167 242.189 36.05C243.089 35.15 244.189 34.7 245.489 34.7C246.822 34.7 247.922 35.15 248.789 36.05C249.689 36.9167 250.139 38 250.139 39.3C250.139 40.6333 249.689 41.75 248.789 42.65C247.922 43.55 246.822 44 245.489 44C244.189 44 243.089 43.55 242.189 42.65C241.289 41.75 240.839 40.6333 240.839 39.3ZM255.55 50.5V48.5L264.05 42.45H265.9V47.25L272.1 47V50.5H265.9V64.8C265.9 66.4333 266.084 67.5833 266.45 68.25C266.817 68.9167 267.567 69.25 268.7 69.25C269.534 69.25 270.65 68.95 272.05 68.35L272.85 71.15C270.85 72.2167 268.734 72.75 266.5 72.75C260.967 72.75 258.2 70.1833 258.2 65.05V50.5H255.55ZM274.547 72V69.35L278.797 68.35V51.55H274.547V48.9L282.547 47H286.497V68.35L290.747 69.35V72H274.547ZM277.997 39.3C277.997 38 278.447 36.9167 279.347 36.05C280.247 35.15 281.347 34.7 282.647 34.7C283.98 34.7 285.08 35.15 285.947 36.05C286.847 36.9167 287.297 38 287.297 39.3C287.297 40.6333 286.847 41.75 285.947 42.65C285.08 43.55 283.98 44 282.647 44C281.347 44 280.247 43.55 279.347 42.65C278.447 41.75 277.997 40.6333 277.997 39.3ZM292.961 59.2C292.961 55.2667 294.061 52.1333 296.261 49.8C298.494 47.4333 301.511 46.25 305.311 46.25C309.178 46.25 312.094 47.5667 314.061 50.2C316.061 52.8333 317.061 56.0833 317.061 59.95H300.661C300.894 62.4167 301.778 64.55 303.311 66.35C304.844 68.1167 306.811 69 309.211 69C311.011 69 312.944 68.6167 315.011 67.85L316.061 70.7C312.961 72.0667 309.928 72.75 306.961 72.75C302.661 72.75 299.244 71.5 296.711 69C294.211 66.4667 292.961 63.2 292.961 59.2ZM300.661 56.85L309.111 56.3C309.111 55.5 309.061 54.7667 308.961 54.1C308.861 53.4 308.578 52.5667 308.111 51.6C307.278 50.2 306.294 49.5 305.161 49.5C303.828 49.5 302.728 50.1833 301.861 51.55C301.361 52.3833 301.028 53.3 300.861 54.3C300.694 55.3 300.628 56.15 300.661 56.85ZM320.557 71.6V64.45H323.357L325.157 69.4C326.357 69.4667 327.307 69.5 328.007 69.5C331.907 69.5 333.857 68.65 333.857 66.95C333.857 66.25 333.507 65.65 332.807 65.15C332.107 64.6167 331.44 64.2 330.807 63.9C330.174 63.6 328.974 63.0667 327.207 62.3C324.907 61.3 323.224 60.1667 322.157 58.9C321.124 57.6 320.607 55.9333 320.607 53.9C320.607 51.4 321.607 49.5 323.607 48.2C325.64 46.9 328.29 46.25 331.557 46.25C334.524 46.25 337.074 46.5667 339.207 47.2V54H336.607L335.057 49.6C334.057 49.4333 333.057 49.35 332.057 49.35C328.857 49.35 327.257 50.1333 327.257 51.7C327.257 52.1 327.407 52.5167 327.707 52.95C328.007 53.3833 328.54 53.8167 329.307 54.25C330.107 54.6833 331.357 55.2667 333.057 56C336.09 57.3667 338.14 58.7 339.207 60C340.274 61.2667 340.807 62.9833 340.807 65.15C340.807 67.6167 339.79 69.5 337.757 70.8C335.724 72.1 333.024 72.75 329.657 72.75C326.49 72.75 323.457 72.3667 320.557 71.6Z" fill="white"/>
<path d="M135.746 11.432C135.746 12.164 135.578 12.836 135.242 13.448C134.906 14.048 134.39 14.534 133.694 14.906C132.998 15.278 132.134 15.464 131.102 15.464H129.194V20H126.116V7.364H131.102C132.11 7.364 132.962 7.538 133.658 7.886C134.354 8.234 134.876 8.714 135.224 9.326C135.572 9.938 135.746 10.64 135.746 11.432ZM130.868 13.016C131.456 13.016 131.894 12.878 132.182 12.602C132.47 12.326 132.614 11.936 132.614 11.432C132.614 10.928 132.47 10.538 132.182 10.262C131.894 9.986 131.456 9.848 130.868 9.848H129.194V13.016H130.868ZM145.592 20L142.964 15.23H142.226V20H139.148V7.364H144.314C145.31 7.364 146.156 7.538 146.852 7.886C147.56 8.234 148.088 8.714 148.436 9.326C148.784 9.926 148.958 10.598 148.958 11.342C148.958 12.182 148.718 12.932 148.238 13.592C147.77 14.252 147.074 14.72 146.15 14.996L149.066 20H145.592ZM142.226 13.052H144.134C144.698 13.052 145.118 12.914 145.394 12.638C145.682 12.362 145.826 11.972 145.826 11.468C145.826 10.988 145.682 10.61 145.394 10.334C145.118 10.058 144.698 9.92 144.134 9.92H142.226V13.052ZM158.667 20.126C157.479 20.126 156.387 19.85 155.391 19.298C154.407 18.746 153.621 17.978 153.033 16.994C152.457 15.998 152.169 14.882 152.169 13.646C152.169 12.41 152.457 11.3 153.033 10.316C153.621 9.332 154.407 8.564 155.391 8.012C156.387 7.46 157.479 7.184 158.667 7.184C159.855 7.184 160.941 7.46 161.925 8.012C162.921 8.564 163.701 9.332 164.265 10.316C164.841 11.3 165.129 12.41 165.129 13.646C165.129 14.882 164.841 15.998 164.265 16.994C163.689 17.978 162.909 18.746 161.925 19.298C160.941 19.85 159.855 20.126 158.667 20.126ZM158.667 17.318C159.675 17.318 160.479 16.982 161.079 16.31C161.691 15.638 161.997 14.75 161.997 13.646C161.997 12.53 161.691 11.642 161.079 10.982C160.479 10.31 159.675 9.974 158.667 9.974C157.647 9.974 156.831 10.304 156.219 10.964C155.619 11.624 155.319 12.518 155.319 13.646C155.319 14.762 155.619 15.656 156.219 16.328C156.831 16.988 157.647 17.318 158.667 17.318ZM182.951 7.364V20H179.873V12.422L177.047 20H174.563L171.719 12.404V20H168.641V7.364H172.277L175.823 16.112L179.333 7.364H182.951ZM192.94 20.126C191.752 20.126 190.66 19.85 189.664 19.298C188.68 18.746 187.894 17.978 187.306 16.994C186.73 15.998 186.442 14.882 186.442 13.646C186.442 12.41 186.73 11.3 187.306 10.316C187.894 9.332 188.68 8.564 189.664 8.012C190.66 7.46 191.752 7.184 192.94 7.184C194.128 7.184 195.214 7.46 196.198 8.012C197.194 8.564 197.974 9.332 198.538 10.316C199.114 11.3 199.402 12.41 199.402 13.646C199.402 14.882 199.114 15.998 198.538 16.994C197.962 17.978 197.182 18.746 196.198 19.298C195.214 19.85 194.128 20.126 192.94 20.126ZM192.94 17.318C193.948 17.318 194.752 16.982 195.352 16.31C195.964 15.638 196.27 14.75 196.27 13.646C196.27 12.53 195.964 11.642 195.352 10.982C194.752 10.31 193.948 9.974 192.94 9.974C191.92 9.974 191.104 10.304 190.492 10.964C189.892 11.624 189.592 12.518 189.592 13.646C189.592 14.762 189.892 15.656 190.492 16.328C191.104 16.988 191.92 17.318 192.94 17.318ZM212.005 7.364V9.83H208.657V20H205.579V9.83H202.231V7.364H212.005ZM218.428 7.364V20H215.35V7.364H218.428ZM228.434 20.126C227.246 20.126 226.154 19.85 225.158 19.298C224.174 18.746 223.388 17.978 222.8 16.994C222.224 15.998 221.936 14.882 221.936 13.646C221.936 12.41 222.224 11.3 222.8 10.316C223.388 9.332 224.174 8.564 225.158 8.012C226.154 7.46 227.246 7.184 228.434 7.184C229.622 7.184 230.708 7.46 231.692 8.012C232.688 8.564 233.468 9.332 234.032 10.316C234.608 11.3 234.896 12.41 234.896 13.646C234.896 14.882 234.608 15.998 234.032 16.994C233.456 17.978 232.676 18.746 231.692 19.298C230.708 19.85 229.622 20.126 228.434 20.126ZM228.434 17.318C229.442 17.318 230.246 16.982 230.846 16.31C231.458 15.638 231.764 14.75 231.764 13.646C231.764 12.53 231.458 11.642 230.846 10.982C230.246 10.31 229.442 9.974 228.434 9.974C227.414 9.974 226.598 10.304 225.986 10.964C225.386 11.624 225.086 12.518 225.086 13.646C225.086 14.762 225.386 15.656 225.986 16.328C226.598 16.988 227.414 17.318 228.434 17.318ZM249.713 20H246.635L241.487 12.206V20H238.409V7.364H241.487L246.635 15.194V7.364H249.713V20Z" fill="#FFEFEC"/>
</svg>
