<svg width="405" height="97" viewBox="0 0 405 97" fill="none" xmlns="http://www.w3.org/2000/svg">
<path fill-rule="evenodd" clip-rule="evenodd" d="M366.379 78.0297C346.028 78.3278 331.609 79.0388 311.551 80.7331C295.053 82.1268 284.119 83.2592 265.45 85.5077C254.472 86.8298 250.172 87.4412 241.44 88.9216C234.562 90.0876 230.264 90.7705 226.194 91.3441C220.135 92.1978 218 92.5939 218 92.8638C218 92.9827 218.202 93.0116 218.375 92.9176C218.526 92.8361 219.35 92.713 224.411 92.0162C228.648 91.4327 231.776 90.9636 238.069 89.9676C252.188 87.7331 253.495 87.5638 275.389 85.1333C306.432 81.6872 331.642 79.8578 355.838 79.2954C378.814 78.7612 397.733 78.9797 402.587 79.835C403.389 79.9763 403.393 79.9642 402.479 80.1927C400.354 80.7247 395.589 81.3386 386.174 82.2935C375.422 83.3839 369.589 83.89 352.104 85.2496C338.79 86.2849 338.469 86.3131 320.885 88.0028C302.467 89.7728 294.356 90.6225 283.341 91.9364C279.451 92.4003 279.123 92.4352 274.336 92.8937C264.809 93.8061 256.629 94.7987 248.596 96.0168C245.981 96.4133 245.509 96.592 246.193 96.9272C246.743 97.197 251.311 96.7335 262.649 95.2575C276.642 93.4358 278.613 93.2142 286.659 92.5572C298.196 91.6153 307.812 91.0046 315.855 90.7032C323.914 90.4012 337.39 90.0167 344.688 89.8804C348.764 89.8043 364.551 89.7444 365.338 89.8021L365.95 89.847L365.379 89.9216C364.386 90.0518 346.778 91.9022 339.036 92.6901C336.611 92.9368 333.111 93.2804 331.257 93.4536C325.213 94.0181 312.247 95.3407 309.961 95.6258C308.533 95.804 308.032 96.1662 308.708 96.5323C309.168 96.7816 312.258 96.8032 318.967 96.604C320.564 96.5565 323.504 96.4784 325.501 96.4303C327.497 96.3823 330.481 96.2805 332.132 96.2041C333.783 96.1277 336.256 96.038 337.629 96.0049C339.002 95.9717 340.731 95.9248 341.473 95.9006L342.821 95.8567L341.629 95.8479C340.067 95.8364 336.393 95.7461 333.279 95.6426C329.628 95.5213 321.63 95.5487 317.93 95.6952C317.512 95.7117 317.365 95.7026 317.481 95.6674C317.708 95.5986 327.132 94.6434 331.568 94.2397C344.973 93.0194 367.89 90.5928 369.038 90.2722C370.057 89.9877 369.98 89.49 368.879 89.2407C366.906 88.7941 348.704 88.8772 332.398 89.4073C331 89.4527 327.733 89.554 325.138 89.6324C315.377 89.9272 305.784 90.352 302.165 90.65C301.937 90.6688 301.777 90.6688 301.81 90.6502C301.941 90.5749 327.199 88.149 336.996 87.2706C339.212 87.072 345.629 86.5542 351.257 86.1199C370.818 84.6105 375.335 84.2209 387.16 83.0233C401.761 81.5445 405.728 80.8047 404.895 79.7158C404.202 78.8092 400.23 78.3962 389.182 78.0821C386.539 78.0069 370.458 77.97 366.379 78.0297Z" fill="white"/>
<path d="M1.65 72V69.2L6.25 68.1V40.9L1.65 39.8V37H28.2V47.25H25.25L23.25 40.85H14.4V52.45L23.7 51.6V56.55L14.4 55.8V68.15H23.35L26.75 61.2H29.7L28.2 72H1.65ZM31.9441 72V69.35L36.2941 68.5L42.9441 60.6L36.5441 50.5L32.5941 49.65V47H48.3441V49.65L45.7441 50.15L48.9941 55.2L52.9941 50.45L50.2441 49.65V47H61.4441V49.65L57.0941 50.6L50.7941 58.05L57.4941 68.6L61.5941 69.35V72H45.4441V69.35L48.1441 68.95L44.7441 63.45L40.3441 68.65L42.9941 69.35V72H31.9441ZM63.0059 84.35L67.2559 83.35V51.55H63.0059V48.9L71.0059 47H74.9559V49.4C76.9892 47.3 79.4225 46.25 82.2559 46.25C83.6559 46.25 84.9725 46.5333 86.2059 47.1C87.4725 47.6333 88.5725 48.4333 89.5059 49.5C90.4392 50.5333 91.1725 51.8167 91.7059 53.35C92.2725 54.8833 92.5559 56.6167 92.5559 58.55C92.5559 60.8167 92.1559 62.8333 91.3559 64.6C90.5892 66.3667 89.5392 67.85 88.2059 69.05C86.8725 70.25 85.3059 71.1667 83.5059 71.8C81.7392 72.4333 79.8559 72.75 77.8559 72.75C76.5559 72.75 75.5892 72.65 74.9559 72.45V83.35L80.2059 84.35V87H63.0059V84.35ZM74.9559 69C75.7225 69.3333 76.5392 69.5 77.4059 69.5C79.5392 69.5 81.2725 68.6 82.6059 66.8C83.9392 64.9667 84.6059 62.2833 84.6059 58.75C84.6059 56.05 84.1392 54.05 83.2059 52.75C82.2725 51.45 80.9892 50.8 79.3559 50.8C78.6225 50.8 77.8225 50.9667 76.9559 51.3C76.1225 51.6333 75.4559 52.05 74.9559 52.55V69ZM94.6953 72V69.35L98.9453 68.35V36.55H94.6953V33.9L102.695 32H106.645V68.35L110.895 69.35V72H94.6953ZM126.478 72.75C124.578 72.75 122.795 72.4167 121.128 71.75C119.495 71.0833 118.078 70.1667 116.878 69C115.678 67.8333 114.728 66.4333 114.028 64.8C113.328 63.1667 112.978 61.3833 112.978 59.45C112.978 57.5167 113.328 55.75 114.028 54.15C114.728 52.5167 115.678 51.1167 116.878 49.95C118.078 48.7833 119.495 47.8833 121.128 47.25C122.795 46.5833 124.578 46.25 126.478 46.25C128.378 46.25 130.145 46.5833 131.778 47.25C133.411 47.8833 134.828 48.7833 136.028 49.95C137.261 51.1167 138.211 52.5167 138.878 54.15C139.578 55.75 139.928 57.5167 139.928 59.45C139.928 61.35 139.578 63.1167 138.878 64.75C138.211 66.3833 137.261 67.8 136.028 69C134.828 70.1667 133.411 71.0833 131.778 71.75C130.145 72.4167 128.378 72.75 126.478 72.75ZM121.028 59.45C121.028 62.5833 121.478 65.05 122.378 66.85C123.311 68.6167 124.678 69.5 126.478 69.5C128.278 69.5 129.628 68.6167 130.528 66.85C131.461 65.05 131.928 62.5833 131.928 59.45C131.928 56.35 131.461 53.9167 130.528 52.15C129.628 50.3833 128.278 49.5 126.478 49.5C124.678 49.5 123.311 50.3833 122.378 52.15C121.478 53.9167 121.028 56.35 121.028 59.45ZM143.102 72V69.35L147.352 68.35V51.55H143.102V48.9L151.102 47H155.052V50C157.552 47.5 160.518 46.25 163.952 46.25C164.152 46.8833 164.252 47.5833 164.252 48.35C164.252 49.8833 164.085 51.3167 163.752 52.65L157.452 51.6C156.652 51.9667 155.852 52.5 155.052 53.2V68.35L160.302 69.35V72H143.102ZM166.447 59.2C166.447 55.2667 167.547 52.1333 169.747 49.8C171.981 47.4333 174.997 46.25 178.797 46.25C182.664 46.25 185.581 47.5667 187.547 50.2C189.547 52.8333 190.547 56.0833 190.547 59.95H174.147C174.381 62.4167 175.264 64.55 176.797 66.35C178.331 68.1167 180.297 69 182.697 69C184.497 69 186.431 68.6167 188.497 67.85L189.547 70.7C186.447 72.0667 183.414 72.75 180.447 72.75C176.147 72.75 172.731 71.5 170.197 69C167.697 66.4667 166.447 63.2 166.447 59.2ZM174.147 56.85L182.597 56.3C182.597 55.5 182.547 54.7667 182.447 54.1C182.347 53.4 182.064 52.5667 181.597 51.6C180.764 50.2 179.781 49.5 178.647 49.5C177.314 49.5 176.214 50.1833 175.347 51.55C174.847 52.3833 174.514 53.3 174.347 54.3C174.181 55.3 174.114 56.15 174.147 56.85ZM204.726 72V69.2L209.326 68.1V40.9L204.726 39.8V37H213.326L234.776 60.5V40.9L230.176 39.8V37H243.526V39.8L238.926 40.9V72H234.076L213.326 49.3V68.1L217.926 69.2V72H204.726ZM244.811 65.8C244.811 62.9 245.994 60.7 248.361 59.2C250.761 57.6667 254.627 56.9 259.961 56.9V55.4C259.961 54.4 259.944 53.6833 259.911 53.25C259.911 52.7833 259.844 52.2333 259.711 51.6C259.577 50.9667 259.377 50.5167 259.111 50.25C258.877 49.9833 258.511 49.75 258.011 49.55C257.511 49.3167 256.894 49.2 256.161 49.2L249.811 54.7C247.544 53.4 246.411 51.3833 246.411 48.65L247.911 48C248.544 47.7333 249.777 47.3833 251.611 46.95C253.444 46.4833 255.227 46.25 256.961 46.25C264.127 46.25 267.711 49.1167 267.711 54.85V68.25H271.611V70.4C271.444 70.5667 271.211 70.7833 270.911 71.05C270.611 71.3167 269.961 71.6667 268.961 72.1C267.961 72.5333 266.927 72.75 265.861 72.75C263.327 72.75 261.444 71.9 260.211 70.2C257.977 71.9 255.544 72.75 252.911 72.75C250.611 72.75 248.677 72.1667 247.111 71C245.577 69.8333 244.811 68.1 244.811 65.8ZM252.861 65.35C252.861 66.3167 253.177 67.0833 253.811 67.65C254.477 68.2167 255.277 68.5 256.211 68.5C257.711 68.5 258.961 67.95 259.961 66.85V60C258.094 60 256.444 60.5 255.011 61.5C253.577 62.4667 252.861 63.75 252.861 65.35ZM273.324 50.5V48.5L281.824 42.45H283.674V47.25L289.874 47V50.5H283.674V64.8C283.674 66.4333 283.857 67.5833 284.224 68.25C284.59 68.9167 285.34 69.25 286.474 69.25C287.307 69.25 288.424 68.95 289.824 68.35L290.624 71.15C288.624 72.2167 286.507 72.75 284.274 72.75C278.74 72.75 275.974 70.1833 275.974 65.05V50.5H273.324ZM291.27 49.65V47H303.22V64.25C303.22 65.95 303.42 67.1333 303.82 67.8C304.254 68.4333 305.104 68.75 306.37 68.75C307.337 68.75 308.337 68.5 309.37 68C310.404 67.5 311.237 66.8333 311.87 66V50.65L308.62 49.65V47H319.62V68.25H323.52V70.4C322.787 70.9 322.187 71.2667 321.72 71.5C321.287 71.7 320.787 71.9 320.22 72.1C319.687 72.3333 319.12 72.5 318.52 72.6C317.954 72.7 317.42 72.75 316.92 72.75C314.52 72.75 312.837 71.6667 311.87 69.5C309.504 71.6667 306.604 72.75 303.17 72.75C298.07 72.75 295.52 70.1333 295.52 64.9V50.65L291.27 49.65ZM325.67 72V69.35L329.92 68.35V51.55H325.67V48.9L333.67 47H337.62V50C340.12 47.5 343.087 46.25 346.52 46.25C346.72 46.8833 346.82 47.5833 346.82 48.35C346.82 49.8833 346.653 51.3167 346.32 52.65L340.02 51.6C339.22 51.9667 338.42 52.5 337.62 53.2V68.35L342.87 69.35V72H325.67ZM349.016 59.2C349.016 55.2667 350.116 52.1333 352.316 49.8C354.549 47.4333 357.566 46.25 361.366 46.25C365.232 46.25 368.149 47.5667 370.116 50.2C372.116 52.8333 373.116 56.0833 373.116 59.95H356.716C356.949 62.4167 357.832 64.55 359.366 66.35C360.899 68.1167 362.866 69 365.266 69C367.066 69 368.999 68.6167 371.066 67.85L372.116 70.7C369.016 72.0667 365.982 72.75 363.016 72.75C358.716 72.75 355.299 71.5 352.766 69C350.266 66.4667 349.016 63.2 349.016 59.2ZM356.716 56.85L365.166 56.3C365.166 55.5 365.116 54.7667 365.016 54.1C364.916 53.4 364.632 52.5667 364.166 51.6C363.332 50.2 362.349 49.5 361.216 49.5C359.882 49.5 358.782 50.1833 357.916 51.55C357.416 52.3833 357.082 53.3 356.916 54.3C356.749 55.3 356.682 56.15 356.716 56.85Z" fill="white"/>
<path d="M135.746 11.432C135.746 12.164 135.578 12.836 135.242 13.448C134.906 14.048 134.39 14.534 133.694 14.906C132.998 15.278 132.134 15.464 131.102 15.464H129.194V20H126.116V7.364H131.102C132.11 7.364 132.962 7.538 133.658 7.886C134.354 8.234 134.876 8.714 135.224 9.326C135.572 9.938 135.746 10.64 135.746 11.432ZM130.868 13.016C131.456 13.016 131.894 12.878 132.182 12.602C132.47 12.326 132.614 11.936 132.614 11.432C132.614 10.928 132.47 10.538 132.182 10.262C131.894 9.986 131.456 9.848 130.868 9.848H129.194V13.016H130.868ZM145.592 20L142.964 15.23H142.226V20H139.148V7.364H144.314C145.31 7.364 146.156 7.538 146.852 7.886C147.56 8.234 148.088 8.714 148.436 9.326C148.784 9.926 148.958 10.598 148.958 11.342C148.958 12.182 148.718 12.932 148.238 13.592C147.77 14.252 147.074 14.72 146.15 14.996L149.066 20H145.592ZM142.226 13.052H144.134C144.698 13.052 145.118 12.914 145.394 12.638C145.682 12.362 145.826 11.972 145.826 11.468C145.826 10.988 145.682 10.61 145.394 10.334C145.118 10.058 144.698 9.92 144.134 9.92H142.226V13.052ZM158.667 20.126C157.479 20.126 156.387 19.85 155.391 19.298C154.407 18.746 153.621 17.978 153.033 16.994C152.457 15.998 152.169 14.882 152.169 13.646C152.169 12.41 152.457 11.3 153.033 10.316C153.621 9.332 154.407 8.564 155.391 8.012C156.387 7.46 157.479 7.184 158.667 7.184C159.855 7.184 160.941 7.46 161.925 8.012C162.921 8.564 163.701 9.332 164.265 10.316C164.841 11.3 165.129 12.41 165.129 13.646C165.129 14.882 164.841 15.998 164.265 16.994C163.689 17.978 162.909 18.746 161.925 19.298C160.941 19.85 159.855 20.126 158.667 20.126ZM158.667 17.318C159.675 17.318 160.479 16.982 161.079 16.31C161.691 15.638 161.997 14.75 161.997 13.646C161.997 12.53 161.691 11.642 161.079 10.982C160.479 10.31 159.675 9.974 158.667 9.974C157.647 9.974 156.831 10.304 156.219 10.964C155.619 11.624 155.319 12.518 155.319 13.646C155.319 14.762 155.619 15.656 156.219 16.328C156.831 16.988 157.647 17.318 158.667 17.318ZM182.951 7.364V20H179.873V12.422L177.047 20H174.563L171.719 12.404V20H168.641V7.364H172.277L175.823 16.112L179.333 7.364H182.951ZM192.94 20.126C191.752 20.126 190.66 19.85 189.664 19.298C188.68 18.746 187.894 17.978 187.306 16.994C186.73 15.998 186.442 14.882 186.442 13.646C186.442 12.41 186.73 11.3 187.306 10.316C187.894 9.332 188.68 8.564 189.664 8.012C190.66 7.46 191.752 7.184 192.94 7.184C194.128 7.184 195.214 7.46 196.198 8.012C197.194 8.564 197.974 9.332 198.538 10.316C199.114 11.3 199.402 12.41 199.402 13.646C199.402 14.882 199.114 15.998 198.538 16.994C197.962 17.978 197.182 18.746 196.198 19.298C195.214 19.85 194.128 20.126 192.94 20.126ZM192.94 17.318C193.948 17.318 194.752 16.982 195.352 16.31C195.964 15.638 196.27 14.75 196.27 13.646C196.27 12.53 195.964 11.642 195.352 10.982C194.752 10.31 193.948 9.974 192.94 9.974C191.92 9.974 191.104 10.304 190.492 10.964C189.892 11.624 189.592 12.518 189.592 13.646C189.592 14.762 189.892 15.656 190.492 16.328C191.104 16.988 191.92 17.318 192.94 17.318ZM212.005 7.364V9.83H208.657V20H205.579V9.83H202.231V7.364H212.005ZM218.428 7.364V20H215.35V7.364H218.428ZM228.434 20.126C227.246 20.126 226.154 19.85 225.158 19.298C224.174 18.746 223.388 17.978 222.8 16.994C222.224 15.998 221.936 14.882 221.936 13.646C221.936 12.41 222.224 11.3 222.8 10.316C223.388 9.332 224.174 8.564 225.158 8.012C226.154 7.46 227.246 7.184 228.434 7.184C229.622 7.184 230.708 7.46 231.692 8.012C232.688 8.564 233.468 9.332 234.032 10.316C234.608 11.3 234.896 12.41 234.896 13.646C234.896 14.882 234.608 15.998 234.032 16.994C233.456 17.978 232.676 18.746 231.692 19.298C230.708 19.85 229.622 20.126 228.434 20.126ZM228.434 17.318C229.442 17.318 230.246 16.982 230.846 16.31C231.458 15.638 231.764 14.75 231.764 13.646C231.764 12.53 231.458 11.642 230.846 10.982C230.246 10.31 229.442 9.974 228.434 9.974C227.414 9.974 226.598 10.304 225.986 10.964C225.386 11.624 225.086 12.518 225.086 13.646C225.086 14.762 225.386 15.656 225.986 16.328C226.598 16.988 227.414 17.318 228.434 17.318ZM249.713 20H246.635L241.487 12.206V20H238.409V7.364H241.487L246.635 15.194V7.364H249.713V20Z" fill="#FFEFEC"/>
</svg>
