<svg width="617" height="224" viewBox="0 0 617 224" fill="none" xmlns="http://www.w3.org/2000/svg">
<path d="M0.316059 154.843C2.98082 150.282 5.79931 145.106 8.77154 139.315C11.7438 133.473 14.7672 127.221 17.842 120.56C20.9167 113.846 23.9914 106.775 27.0661 99.344C30.1409 91.9134 33.1131 84.3035 35.9828 76.5142C38.8526 68.6736 41.5686 60.705 44.1308 52.6082C46.6931 44.5114 48.9991 36.4659 51.049 28.4716C52.5351 29.9065 54.0724 31.3414 55.661 32.7762C57.3009 34.1599 58.8895 35.5435 60.4269 36.9271C61.9642 38.2595 63.3991 39.5919 64.7315 40.9243C66.1151 42.2054 67.2681 43.4097 68.1905 44.5371C66.2945 50.0716 64.0909 55.9135 61.5799 62.063C59.0689 68.1612 56.4041 74.3875 53.5856 80.7419C50.7671 87.0451 47.8461 93.3226 44.8227 99.5746C41.8504 105.827 38.9038 111.822 35.9828 117.562C33.1131 123.301 30.3715 128.682 27.7579 133.704C25.1444 138.675 22.8128 143.056 20.763 146.848C23.8377 146.848 27.4761 146.874 31.6782 146.925C35.8803 146.925 40.4412 146.951 45.3607 147.002C50.2803 147.053 55.4561 147.13 60.8881 147.233C66.3201 147.335 71.8033 147.463 77.3378 147.617C76.5179 148.744 75.5699 149.974 74.4937 151.307C73.4176 152.639 72.2645 153.997 71.0347 155.381C69.856 156.816 68.6261 158.199 67.345 159.532C66.1151 160.915 64.8852 162.196 63.6553 163.375C59.0432 163.119 54.5849 162.786 50.2803 162.376C46.0269 161.966 41.9017 161.479 37.9045 160.915C33.9074 160.403 29.9871 159.865 26.1437 159.301C22.3516 158.737 18.585 158.174 14.8441 157.61C14.2804 158.635 13.8192 159.378 13.4605 159.839C13.153 160.3 13.0249 160.48 13.0762 160.377L0.316059 154.843ZM131.453 143.236C131.453 143.543 131.607 143.697 131.914 143.697C132.375 143.697 133.144 143.364 134.22 142.698C135.296 142.031 136.526 141.186 137.91 140.161C139.293 139.136 140.754 137.983 142.291 136.702C143.88 135.421 145.392 134.165 146.827 132.935C148.261 131.705 149.543 130.578 150.67 129.553C151.849 128.528 152.745 127.734 153.36 127.17C153.822 127.631 154.385 128.246 155.051 129.015C155.769 129.784 156.409 130.476 156.973 131.09C155.743 132.218 154.257 133.601 152.515 135.241C150.824 136.83 148.979 138.495 146.98 140.238C145.033 141.98 143.009 143.722 140.908 145.465C138.807 147.156 136.757 148.668 134.758 150C132.76 151.332 130.864 152.409 129.07 153.228C127.276 154.1 125.713 154.535 124.381 154.535C123.459 154.535 122.434 154.356 121.306 153.997C120.23 153.638 119.231 153.126 118.308 152.46C117.386 151.845 116.617 151.102 116.002 150.231C115.388 149.359 115.08 148.386 115.08 147.31C115.08 146.9 115.054 146.413 115.003 145.849C115.003 145.234 115.054 144.466 115.157 143.543C115.259 142.569 115.464 141.416 115.772 140.084C116.079 138.7 116.541 137.009 117.155 135.011C115.464 136.804 113.466 138.675 111.16 140.622C108.905 142.569 106.522 144.414 104.011 146.157C101.5 147.899 98.9634 149.462 96.4011 150.846C93.8901 152.28 91.5584 153.357 89.4061 154.074C89.1499 154.176 88.9449 154.228 88.7912 154.228C88.6374 154.228 88.4837 154.228 88.33 154.228C87.8175 154.228 87.1513 153.972 86.3314 153.459C85.4602 152.947 84.6147 152.255 83.7947 151.384C82.9748 150.564 82.283 149.616 81.7193 148.54C81.1044 147.463 80.7969 146.387 80.7969 145.311C80.7969 145.004 80.9506 143.979 81.2581 142.236C81.5656 140.494 82.3086 138.29 83.4873 135.626C84.6147 132.91 86.3058 129.886 88.5606 126.555C90.8154 123.173 93.8901 119.714 97.7847 116.178C99.7833 114.384 101.936 112.693 104.242 111.105C106.189 109.772 108.418 108.414 110.929 107.031C113.44 105.647 116.079 104.545 118.847 103.725C118.949 103.725 119.026 103.7 119.077 103.649C119.18 103.597 119.308 103.623 119.462 103.725C120.076 103.93 120.794 104.264 121.614 104.725C122.485 105.135 123.331 105.596 124.15 106.108C125.022 106.57 125.765 107.056 126.38 107.569C127.046 108.03 127.481 108.414 127.686 108.722C127.738 108.824 127.738 108.901 127.686 108.952L127.533 109.106C125.227 110.336 123.049 111.72 120.999 113.257C118.949 114.743 117.13 116.152 115.541 117.485C113.696 119.073 111.98 120.636 110.391 122.174C106.65 125.863 104.062 129.066 102.627 131.782C101.193 134.447 100.475 136.369 100.475 137.547C100.475 138.419 100.834 138.854 101.551 138.854C102.269 138.854 103.165 138.572 104.242 138.009C105.369 137.394 106.625 136.599 108.008 135.626C109.392 134.601 110.904 133.422 112.543 132.09C114.234 130.706 115.977 129.271 117.77 127.785C119.359 126.504 120.896 125.12 122.382 123.634C123.664 122.404 124.996 120.995 126.38 119.407C127.763 117.818 128.942 116.204 129.916 114.564C129.916 114.513 129.941 114.461 129.992 114.41C130.044 114.359 130.121 114.359 130.223 114.41C130.787 114.82 131.427 115.512 132.145 116.486C132.862 117.408 133.528 118.433 134.143 119.56C134.758 120.688 135.271 121.789 135.681 122.866C136.142 123.89 136.372 124.685 136.372 125.248C135.194 127.657 134.271 129.861 133.605 131.859C132.99 133.806 132.503 135.523 132.145 137.009C131.837 138.495 131.632 139.777 131.53 140.853C131.479 141.878 131.453 142.672 131.453 143.236ZM174.96 112.873C174.345 114.513 173.73 116.178 173.115 117.869C172.5 119.56 171.886 121.303 171.271 123.096C174.499 119.407 177.266 116.409 179.572 114.103C181.93 111.745 183.903 109.901 185.491 108.568C187.131 107.236 188.438 106.339 189.411 105.878C190.436 105.365 191.231 105.109 191.794 105.109C192.461 105.109 193.46 105.442 194.792 106.108C196.125 106.775 197.457 107.594 198.789 108.568C200.173 109.542 201.352 110.541 202.325 111.566C203.35 112.591 203.863 113.488 203.863 114.256C203.863 114.41 203.837 114.615 203.786 114.871C203.734 115.076 203.658 115.358 203.555 115.717C203.145 116.998 202.607 118.51 201.941 120.252C201.326 121.994 200.66 123.814 199.942 125.71C199.225 127.555 198.507 129.425 197.79 131.321C197.073 133.166 196.432 134.908 195.868 136.548C195.305 138.188 194.843 139.623 194.485 140.853C194.126 142.083 193.947 142.979 193.947 143.543C193.947 143.851 194.1 144.004 194.408 144.004C194.972 144.004 195.817 143.671 196.944 143.005C198.072 142.339 199.353 141.468 200.788 140.391C202.274 139.315 203.811 138.137 205.4 136.856C206.989 135.574 208.5 134.319 209.935 133.089C211.421 131.808 212.754 130.655 213.932 129.63C215.111 128.605 216.008 127.836 216.623 127.324C217.135 127.785 217.699 128.374 218.314 129.092C218.929 129.809 219.518 130.476 220.082 131.09C218.954 132.218 217.545 133.601 215.854 135.241C214.163 136.83 212.318 138.47 210.32 140.161C208.372 141.852 206.322 143.543 204.17 145.234C202.069 146.925 200.019 148.437 198.021 149.769C196.022 151.102 194.152 152.178 192.409 152.998C190.667 153.818 189.206 154.228 188.028 154.228C187.259 154.228 186.285 153.946 185.107 153.382C183.928 152.87 182.775 152.204 181.648 151.384C180.572 150.615 179.649 149.744 178.88 148.77C178.112 147.796 177.727 146.848 177.727 145.926C178.189 143.825 178.804 141.442 179.572 138.777C180.392 136.113 181.263 133.397 182.186 130.629C183.108 127.811 184.056 125.044 185.03 122.328C186.055 119.56 187.029 117.024 187.951 114.718L187.797 114.871C186.824 116.05 185.414 117.613 183.569 119.56C181.776 121.456 179.726 123.916 177.42 126.94C175.114 129.912 172.68 133.525 170.118 137.778C167.555 141.98 165.044 146.977 162.584 152.767C162.277 153.485 161.995 154.048 161.739 154.458C161.483 154.868 160.996 155.073 160.278 155.073C159.407 155.073 158.408 154.817 157.281 154.305C156.204 153.843 155.103 153.203 153.975 152.383C152.797 151.614 151.644 150.743 150.516 149.769C149.338 148.796 148.287 147.822 147.365 146.848C147.365 146.541 147.518 145.67 147.826 144.235C148.082 142.8 148.466 141.006 148.979 138.854C149.491 136.651 150.132 134.165 150.901 131.398C151.669 128.579 152.54 125.633 153.514 122.558C154.488 119.483 155.564 116.357 156.742 113.18C157.87 109.952 159.1 106.851 160.432 103.879C162.584 104.904 164.967 106.16 167.581 107.646C170.246 109.132 172.705 110.874 174.96 112.873ZM262.513 141.468C262.513 142.749 262.923 143.389 263.743 143.389C264.716 143.389 265.869 143.082 267.202 142.467C268.585 141.852 270.02 141.058 271.506 140.084C272.993 139.059 274.504 137.932 276.042 136.702C277.579 135.472 279.014 134.268 280.346 133.089C281.73 131.91 282.96 130.809 284.036 129.784C285.112 128.759 285.958 127.939 286.573 127.324C287.085 127.785 287.7 128.374 288.417 129.092C289.135 129.809 289.775 130.476 290.339 131.09C289.007 132.423 287.495 133.909 285.804 135.549C284.113 137.189 282.294 138.88 280.346 140.622C278.45 142.313 276.452 143.979 274.351 145.619C272.301 147.207 270.251 148.642 268.201 149.923C266.151 151.153 264.153 152.152 262.205 152.921C260.258 153.69 258.413 154.074 256.671 154.074C255.749 154.074 254.621 153.638 253.289 152.767C251.956 151.947 250.675 150.922 249.445 149.693C248.215 148.463 247.165 147.182 246.294 145.849C245.474 144.466 245.064 143.236 245.064 142.159C245.064 139.802 245.218 137.342 245.525 134.78C243.219 136.83 240.99 138.777 238.838 140.622C236.685 142.467 234.507 144.209 232.304 145.849C230.151 147.438 227.922 148.898 225.616 150.231C223.361 151.614 220.953 152.793 218.391 153.767C217.622 154.074 216.956 154.228 216.392 154.228C215.88 154.228 215.213 153.972 214.394 153.459C213.574 152.947 212.779 152.28 212.011 151.46C211.242 150.692 210.576 149.821 210.012 148.847C209.448 147.822 209.167 146.848 209.167 145.926C209.167 143.825 209.576 141.493 210.396 138.931C211.165 136.317 212.318 133.653 213.855 130.937C215.342 128.169 217.186 125.428 219.39 122.712C221.542 119.945 224.002 117.357 226.769 114.948C229.537 112.488 232.586 110.285 235.917 108.338C239.248 106.339 242.809 104.75 246.601 103.572C247.319 103.674 248.241 104.007 249.368 104.571C250.496 105.083 251.546 105.622 252.52 106.185C254.365 100.907 256.466 95.6287 258.823 90.3504C261.232 85.0209 263.768 79.922 266.433 75.0537C269.149 70.1341 271.968 65.5477 274.889 61.2943C277.81 56.9897 280.731 53.1975 283.652 49.9178C286.573 46.5869 289.442 43.8965 292.261 41.8467C295.131 39.7969 297.847 38.5413 300.409 38.0801C301.536 38.0801 302.715 38.4645 303.945 39.2332C305.226 39.9506 306.43 40.8474 307.558 41.9235C308.685 42.9485 309.633 44.0246 310.402 45.152C311.222 46.2794 311.734 47.2274 311.939 47.9961C311.939 50.3534 311.35 53.095 310.171 56.221C308.992 59.347 307.353 62.7292 305.252 66.3676C303.202 69.9548 300.742 73.7213 297.872 77.6672C295.054 81.6131 292.005 85.6358 288.725 89.7355C285.445 93.7838 281.986 97.8322 278.348 101.881C274.761 105.929 271.148 109.849 267.509 113.641C265.972 118.868 264.742 123.865 263.82 128.631C262.949 133.345 262.513 137.624 262.513 141.468ZM301.101 47.3812C300.23 47.3812 299.153 48.0217 297.872 49.3029C296.642 50.584 295.233 52.3776 293.644 54.6836C292.107 56.9384 290.467 59.6288 288.725 62.7548C286.983 65.8807 285.215 69.2886 283.421 72.9782C281.627 76.6679 279.834 80.5882 278.04 84.739C276.247 88.8899 274.556 93.092 272.967 97.3454C276.81 92.6308 280.449 87.9163 283.882 83.2017C287.367 78.4359 290.416 73.9263 293.03 69.6729C295.643 65.4195 297.718 61.5249 299.256 57.989C300.793 54.453 301.562 51.532 301.562 49.226C301.562 48.9185 301.536 48.5342 301.485 48.073C301.485 47.6118 301.357 47.3812 301.101 47.3812ZM228.153 138.854C229.844 138.854 232.355 137.675 235.686 135.318C239.017 132.91 242.783 129.707 246.986 125.71C247.447 123.352 248.01 120.97 248.677 118.561C249.343 116.101 250.086 113.616 250.906 111.105C247.934 113.103 245.013 115.384 242.143 117.946C239.324 120.508 236.813 123.045 234.61 125.556C232.406 128.067 230.613 130.424 229.229 132.628C227.897 134.78 227.23 136.42 227.23 137.547C227.23 138.419 227.538 138.854 228.153 138.854ZM285.189 128.784C286.368 127.657 287.726 126.376 289.263 124.941C290.749 123.506 292.235 121.943 293.721 120.252C295.259 118.561 296.668 116.742 297.949 114.794C299.281 112.847 300.332 110.746 301.101 108.491C301.306 107.313 301.613 106.083 302.023 104.802C302.484 103.469 302.971 102.265 303.484 101.189C304.047 100.113 304.585 99.2159 305.098 98.4984C305.61 97.781 306.071 97.4223 306.481 97.4223C307.096 97.781 308.019 98.4728 309.249 99.4977C310.479 100.471 311.708 101.522 312.938 102.649C314.168 103.777 315.244 104.827 316.167 105.801C317.14 106.723 317.627 107.287 317.627 107.492C317.012 109.849 316.705 111.976 316.705 113.872C316.756 115.768 316.91 117.639 317.166 119.483C317.474 121.328 317.781 123.301 318.088 125.402C318.447 127.452 318.627 129.835 318.627 132.551C318.627 134.191 318.345 136.087 317.781 138.239C317.269 140.34 316.346 142.236 315.014 143.927C317.627 142.39 320.215 140.673 322.777 138.777C325.34 136.83 327.62 135.011 329.619 133.32C331.976 131.321 334.231 129.322 336.383 127.324L339.842 131.09C338.151 132.679 336.306 134.37 334.308 136.164C332.36 137.957 330.311 139.725 328.158 141.468C326.057 143.21 323.905 144.875 321.701 146.464C319.498 148.053 317.32 149.462 315.168 150.692C313.015 151.922 310.94 152.895 308.941 153.613C306.943 154.33 305.072 154.689 303.33 154.689C301.844 154.689 300.204 154.33 298.41 153.613C296.617 152.895 294.926 152.024 293.337 150.999C291.748 149.974 290.365 148.898 289.186 147.771C288.007 146.643 287.316 145.695 287.111 144.927C287.111 144.824 287.213 144.619 287.418 144.312C287.623 143.953 287.879 143.594 288.187 143.236C288.443 142.877 288.725 142.569 289.032 142.313C289.289 142.006 289.494 141.852 289.647 141.852C289.955 141.852 290.57 142.083 291.492 142.544C292.415 143.005 293.952 143.236 296.104 143.236C297.283 143.236 298.282 142.928 299.102 142.313C299.973 141.698 300.691 140.878 301.254 139.853C301.818 138.829 302.228 137.65 302.484 136.317C302.741 134.985 302.869 133.576 302.869 132.09C302.869 129.937 302.766 127.862 302.561 125.863C302.356 123.814 302.126 121.841 301.869 119.945C300.998 120.97 299.999 122.046 298.871 123.173C297.744 124.3 296.591 125.428 295.412 126.555C294.285 127.631 293.132 128.708 291.953 129.784C290.826 130.809 289.801 131.731 288.879 132.551L285.189 128.784ZM342.917 155.688C341.994 155.688 340.944 155.381 339.765 154.766C338.587 154.202 337.382 153.408 336.153 152.383C334.923 151.409 333.744 150.256 332.617 148.924C331.438 147.54 330.464 146.105 329.696 144.619C329.388 144.056 329.183 143.415 329.081 142.698C328.978 141.98 328.927 141.058 328.927 139.93C328.927 137.009 329.388 134.088 330.311 131.167C331.182 128.195 332.412 125.377 334 122.712C335.589 120.047 337.511 117.562 339.765 115.256C341.969 112.898 344.377 110.874 346.991 109.183C349.604 107.492 352.397 106.16 355.37 105.186C358.342 104.212 361.365 103.725 364.44 103.725C364.901 103.725 365.516 103.982 366.285 104.494C367.105 104.955 367.976 105.596 368.898 106.416C369.821 107.236 370.743 108.158 371.666 109.183C372.639 110.208 373.51 111.259 374.279 112.335C375.048 113.36 375.663 114.384 376.124 115.409C376.636 116.383 376.893 117.254 376.893 118.023C376.636 118.997 375.842 120.073 374.51 121.251C373.177 122.379 371.589 123.455 369.744 124.48C367.95 125.453 366.054 126.273 364.056 126.94C362.057 127.606 360.315 127.939 358.829 127.939C357.957 127.939 357.522 127.683 357.522 127.17C357.522 126.606 357.906 125.787 358.675 124.71C359.444 123.583 360.289 122.379 361.211 121.098C362.185 119.765 363.056 118.458 363.825 117.177C364.594 115.845 364.978 114.718 364.978 113.795C364.978 113.334 364.85 112.95 364.594 112.642C364.389 112.335 364.081 112.181 363.671 112.181C362.544 112.181 361.365 112.693 360.135 113.718C358.905 114.743 357.676 116.101 356.446 117.792C355.216 119.483 354.037 121.431 352.91 123.634C351.782 125.787 350.783 128.016 349.912 130.322C349.092 132.628 348.426 134.934 347.913 137.24C347.401 139.546 347.145 141.647 347.145 143.543C347.145 144.67 347.478 145.465 348.144 145.926C348.81 146.336 349.835 146.541 351.219 146.541C354.652 146.541 357.957 145.977 361.135 144.85C364.363 143.671 367.438 142.185 370.359 140.391C373.331 138.547 376.15 136.497 378.814 134.242C381.479 131.987 383.99 129.732 386.347 127.478C386.911 128.144 387.603 128.81 388.423 129.476C389.243 130.091 389.858 130.629 390.268 131.09C387.09 134.421 383.708 137.599 380.121 140.622C376.585 143.594 372.844 146.208 368.898 148.463C364.952 150.666 360.802 152.409 356.446 153.69C352.141 155.022 347.631 155.688 342.917 155.688ZM429.855 143.236C429.855 143.543 430.008 143.697 430.316 143.697C430.777 143.697 431.546 143.364 432.622 142.698C433.698 142.031 434.928 141.186 436.312 140.161C437.695 139.136 439.156 137.983 440.693 136.702C442.282 135.421 443.793 134.165 445.228 132.935C446.663 131.705 447.944 130.578 449.072 129.553C450.25 128.528 451.147 127.734 451.762 127.17C452.223 127.631 452.787 128.246 453.453 129.015C454.171 129.784 454.811 130.476 455.375 131.09C454.145 132.218 452.659 133.601 450.916 135.241C449.225 136.83 447.381 138.495 445.382 140.238C443.435 141.98 441.41 143.722 439.309 145.465C437.208 147.156 435.159 148.668 433.16 150C431.161 151.332 429.265 152.409 427.472 153.228C425.678 154.1 424.115 154.535 422.783 154.535C421.86 154.535 420.835 154.356 419.708 153.997C418.632 153.638 417.633 153.126 416.71 152.46C415.788 151.845 415.019 151.102 414.404 150.231C413.789 149.359 413.482 148.386 413.482 147.31C413.482 146.9 413.456 146.413 413.405 145.849C413.405 145.234 413.456 144.466 413.559 143.543C413.661 142.569 413.866 141.416 414.174 140.084C414.481 138.7 414.942 137.009 415.557 135.011C413.866 136.804 411.868 138.675 409.561 140.622C407.307 142.569 404.924 144.414 402.413 146.157C399.902 147.899 397.365 149.462 394.803 150.846C392.292 152.28 389.96 153.357 387.808 154.074C387.552 154.176 387.347 154.228 387.193 154.228C387.039 154.228 386.885 154.228 386.732 154.228C386.219 154.228 385.553 153.972 384.733 153.459C383.862 152.947 383.016 152.255 382.196 151.384C381.377 150.564 380.685 149.616 380.121 148.54C379.506 147.463 379.199 146.387 379.199 145.311C379.199 145.004 379.352 143.979 379.66 142.236C379.967 140.494 380.71 138.29 381.889 135.626C383.016 132.91 384.707 129.886 386.962 126.555C389.217 123.173 392.292 119.714 396.186 116.178C398.185 114.384 400.337 112.693 402.643 111.105C404.591 109.772 406.82 108.414 409.331 107.031C411.842 105.647 414.481 104.545 417.248 103.725C417.351 103.725 417.428 103.7 417.479 103.649C417.581 103.597 417.709 103.623 417.863 103.725C418.478 103.93 419.196 104.264 420.016 104.725C420.887 105.135 421.732 105.596 422.552 106.108C423.423 106.57 424.166 107.056 424.781 107.569C425.448 108.03 425.883 108.414 426.088 108.722C426.139 108.824 426.139 108.901 426.088 108.952L425.934 109.106C423.628 110.336 421.45 111.72 419.401 113.257C417.351 114.743 415.532 116.152 413.943 117.485C412.098 119.073 410.381 120.636 408.793 122.174C405.052 125.863 402.464 129.066 401.029 131.782C399.594 134.447 398.877 136.369 398.877 137.547C398.877 138.419 399.236 138.854 399.953 138.854C400.67 138.854 401.567 138.572 402.643 138.009C403.771 137.394 405.026 136.599 406.41 135.626C407.794 134.601 409.305 133.422 410.945 132.09C412.636 130.706 414.379 129.271 416.172 127.785C417.761 126.504 419.298 125.12 420.784 123.634C422.065 122.404 423.398 120.995 424.781 119.407C426.165 117.818 427.344 116.204 428.317 114.564C428.317 114.513 428.343 114.461 428.394 114.41C428.445 114.359 428.522 114.359 428.625 114.41C429.188 114.82 429.829 115.512 430.546 116.486C431.264 117.408 431.93 118.433 432.545 119.56C433.16 120.688 433.672 121.789 434.082 122.866C434.544 123.89 434.774 124.685 434.774 125.248C433.596 127.657 432.673 129.861 432.007 131.859C431.392 133.806 430.905 135.523 430.546 137.009C430.239 138.495 430.034 139.777 429.932 140.853C429.88 141.878 429.855 142.672 429.855 143.236ZM468.519 121.636C471.286 118.202 473.823 115.384 476.129 113.18C478.435 110.925 480.459 109.157 482.202 107.876C483.995 106.544 485.507 105.622 486.737 105.109C487.967 104.597 488.889 104.34 489.504 104.34C490.324 104.34 491.221 104.648 492.195 105.263C493.168 105.878 494.116 106.621 495.039 107.492C496.012 108.363 496.909 109.26 497.729 110.182C498.549 111.105 499.241 111.848 499.805 112.412C500.368 112.975 500.701 113.59 500.804 114.256C500.958 114.871 501.034 115.512 501.034 116.178C501.034 118.587 500.624 121.226 499.805 124.095C498.985 126.914 497.908 129.732 496.576 132.551C495.244 135.318 493.732 137.957 492.041 140.468C490.35 142.979 488.633 145.106 486.891 146.848C488.377 146.233 489.889 145.49 491.426 144.619C493.015 143.697 494.578 142.723 496.115 141.698C497.652 140.673 499.164 139.623 500.65 138.547C502.136 137.419 503.545 136.317 504.878 135.241C508.004 132.782 511.027 130.142 513.948 127.324L517.407 131.09C515.716 132.679 513.82 134.37 511.719 136.164C509.669 137.957 507.517 139.725 505.262 141.468C503.007 143.21 500.701 144.875 498.344 146.464C496.038 148.053 493.809 149.462 491.657 150.692C489.504 151.922 487.506 152.895 485.661 153.613C483.816 154.33 482.227 154.689 480.895 154.689C479.973 154.689 478.82 154.407 477.436 153.843C476.052 153.331 474.694 152.69 473.362 151.922C472.081 151.153 470.953 150.333 469.98 149.462C469.057 148.54 468.596 147.72 468.596 147.002C468.596 146.592 468.852 146.233 469.365 145.926C469.928 145.567 470.723 144.952 471.748 144.081C472.773 143.21 474.002 141.903 475.437 140.161C476.872 138.419 478.486 135.882 480.28 132.551C481.254 130.706 482.176 128.81 483.047 126.863C483.918 124.864 484.687 123.019 485.353 121.328C486.02 119.586 486.532 118.1 486.891 116.87C487.301 115.589 487.506 114.718 487.506 114.256C487.506 113.795 487.429 113.488 487.275 113.334C487.173 113.129 487.07 112.975 486.968 112.873C486.763 112.821 486.583 112.821 486.429 112.873C485.712 113.078 484.252 114.231 482.048 116.332C479.896 118.382 477.359 121.354 474.438 125.248C471.517 129.092 468.417 133.806 465.137 139.392C461.857 144.927 458.757 151.256 455.836 158.379C453.427 165.245 451.019 172.189 448.61 179.21C446.202 186.23 443.845 193.225 441.539 200.195L422.014 204.807C424.986 196.351 428.087 187.947 431.315 179.594C434.492 171.292 437.67 162.965 440.847 154.612C443.973 146.31 447.073 137.983 450.148 129.63C453.171 121.277 456.067 112.898 458.834 104.494C458.988 103.93 459.116 103.546 459.218 103.341C459.372 103.085 459.654 102.957 460.064 102.957C460.884 103.213 461.883 103.7 463.062 104.417C464.24 105.083 465.393 105.878 466.521 106.8C467.699 107.671 468.75 108.568 469.672 109.491C470.595 110.413 471.235 111.207 471.594 111.873C471.696 112.027 471.671 112.309 471.517 112.719C471.415 113.078 471.286 113.488 471.133 113.949L468.519 121.636ZM567.218 131.09C562.503 135.703 558.045 139.572 553.843 142.698C549.692 145.824 545.72 148.335 541.928 150.231C538.136 152.127 534.498 153.485 531.013 154.305C527.58 155.125 524.223 155.534 520.943 155.534C519.56 155.534 518.022 155.022 516.331 153.997C514.64 152.972 513.077 151.717 511.642 150.231C510.156 148.796 508.926 147.284 507.953 145.695C506.979 144.107 506.492 142.749 506.492 141.621C506.492 137.419 507.081 133.576 508.26 130.091C509.387 126.555 510.899 123.378 512.795 120.56C514.691 117.741 516.844 115.256 519.252 113.103C521.712 110.951 524.249 109.157 526.862 107.723C529.527 106.288 532.166 105.212 534.779 104.494C537.393 103.777 539.802 103.418 542.005 103.418C543.594 103.418 545.157 103.879 546.694 104.802C548.283 105.724 549.718 106.851 550.999 108.184C552.28 109.516 553.305 110.925 554.073 112.412C554.893 113.846 555.303 115.102 555.303 116.178C555.303 117.92 554.56 119.714 553.074 121.559C551.639 123.352 549.589 125.197 546.925 127.093C544.26 128.989 541.057 130.937 537.316 132.935C533.575 134.883 529.45 136.856 524.94 138.854C524.787 140.084 524.71 141.288 524.71 142.467C524.71 144.056 525.043 145.132 525.709 145.695C526.427 146.259 527.733 146.541 529.629 146.541C533.012 146.541 536.189 145.977 539.161 144.85C542.184 143.722 545.08 142.262 547.847 140.468C550.614 138.675 553.279 136.625 555.841 134.319C558.404 132.013 560.94 129.681 563.451 127.324L567.218 131.09ZM540.16 111.873C539.135 111.873 538.008 112.437 536.778 113.565C535.548 114.641 534.318 116.076 533.088 117.869C531.859 119.663 530.68 121.738 529.552 124.095C528.425 126.402 527.451 128.81 526.631 131.321C528.528 130.091 530.372 128.784 532.166 127.401C534.011 126.017 535.651 124.582 537.086 123.096C538.52 121.559 539.673 119.996 540.545 118.407C541.416 116.819 541.851 115.23 541.851 113.641C541.851 113.18 541.698 112.77 541.39 112.412C541.134 112.053 540.724 111.873 540.16 111.873ZM562.068 128.784C563.246 127.657 564.604 126.376 566.142 124.941C567.628 123.506 569.114 121.943 570.6 120.252C572.137 118.561 573.547 116.742 574.828 114.794C576.16 112.847 577.211 110.746 577.979 108.491C578.184 107.313 578.492 106.083 578.902 104.802C579.363 103.469 579.85 102.265 580.362 101.189C580.926 100.113 581.464 99.2159 581.976 98.4984C582.489 97.781 582.95 97.4223 583.36 97.4223C583.975 97.781 584.897 98.4728 586.127 99.4977C587.357 100.471 588.587 101.522 589.817 102.649C591.047 103.777 592.123 104.827 593.045 105.801C594.019 106.723 594.506 107.287 594.506 107.492C593.891 109.849 593.584 111.976 593.584 113.872C593.635 115.768 593.789 117.639 594.045 119.483C594.352 121.328 594.66 123.301 594.967 125.402C595.326 127.452 595.505 129.835 595.505 132.551C595.505 134.191 595.223 136.087 594.66 138.239C594.147 140.34 593.225 142.236 591.892 143.927C594.506 142.39 597.094 140.673 599.656 138.777C602.218 136.83 604.499 135.011 606.497 133.32C608.855 131.321 611.109 129.322 613.262 127.324L616.721 131.09C615.03 132.679 613.185 134.37 611.186 136.164C609.239 137.957 607.189 139.725 605.037 141.468C602.936 143.21 600.784 144.875 598.58 146.464C596.376 148.053 594.198 149.462 592.046 150.692C589.894 151.922 587.818 152.895 585.82 153.613C583.821 154.33 581.951 154.689 580.208 154.689C578.722 154.689 577.083 154.33 575.289 153.613C573.495 152.895 571.804 152.024 570.216 150.999C568.627 149.974 567.243 148.898 566.065 147.771C564.886 146.643 564.194 145.695 563.989 144.927C563.989 144.824 564.092 144.619 564.297 144.312C564.502 143.953 564.758 143.594 565.065 143.236C565.322 142.877 565.604 142.569 565.911 142.313C566.167 142.006 566.372 141.852 566.526 141.852C566.833 141.852 567.448 142.083 568.371 142.544C569.293 143.005 570.831 143.236 572.983 143.236C574.162 143.236 575.161 142.928 575.981 142.313C576.852 141.698 577.569 140.878 578.133 139.853C578.697 138.829 579.107 137.65 579.363 136.317C579.619 134.985 579.747 133.576 579.747 132.09C579.747 129.937 579.645 127.862 579.44 125.863C579.235 123.814 579.004 121.841 578.748 119.945C577.877 120.97 576.878 122.046 575.75 123.173C574.623 124.3 573.47 125.428 572.291 126.555C571.164 127.631 570.011 128.708 568.832 129.784C567.705 130.809 566.68 131.731 565.757 132.551L562.068 128.784Z" fill="white"/>
<path d="M274.194 9.83V12.386H278.316V14.762H274.194V17.534H278.856V20H271.116V7.364H278.856V9.83H274.194ZM290.394 20L287.82 16.13L285.552 20H282.06L286.11 13.574L281.97 7.364H285.552L288.09 11.18L290.322 7.364H293.814L289.8 13.736L293.976 20H290.394ZM306.951 11.432C306.951 12.164 306.783 12.836 306.447 13.448C306.111 14.048 305.595 14.534 304.899 14.906C304.203 15.278 303.339 15.464 302.307 15.464H300.399V20H297.321V7.364H302.307C303.315 7.364 304.167 7.538 304.863 7.886C305.559 8.234 306.081 8.714 306.429 9.326C306.777 9.938 306.951 10.64 306.951 11.432ZM302.073 13.016C302.661 13.016 303.099 12.878 303.387 12.602C303.675 12.326 303.819 11.936 303.819 11.432C303.819 10.928 303.675 10.538 303.387 10.262C303.099 9.986 302.661 9.848 302.073 9.848H300.399V13.016H302.073ZM313.432 17.624H317.464V20H310.354V7.364H313.432V17.624ZM326.708 20.126C325.52 20.126 324.428 19.85 323.432 19.298C322.448 18.746 321.662 17.978 321.074 16.994C320.498 15.998 320.21 14.882 320.21 13.646C320.21 12.41 320.498 11.3 321.074 10.316C321.662 9.332 322.448 8.564 323.432 8.012C324.428 7.46 325.52 7.184 326.708 7.184C327.896 7.184 328.982 7.46 329.966 8.012C330.962 8.564 331.742 9.332 332.306 10.316C332.882 11.3 333.17 12.41 333.17 13.646C333.17 14.882 332.882 15.998 332.306 16.994C331.73 17.978 330.95 18.746 329.966 19.298C328.982 19.85 327.896 20.126 326.708 20.126ZM326.708 17.318C327.716 17.318 328.52 16.982 329.12 16.31C329.732 15.638 330.038 14.75 330.038 13.646C330.038 12.53 329.732 11.642 329.12 10.982C328.52 10.31 327.716 9.974 326.708 9.974C325.688 9.974 324.872 10.304 324.26 10.964C323.66 11.624 323.36 12.518 323.36 13.646C323.36 14.762 323.66 15.656 324.26 16.328C324.872 16.988 325.688 17.318 326.708 17.318ZM343.126 20L340.498 15.23H339.76V20H336.682V7.364H341.848C342.844 7.364 343.69 7.538 344.386 7.886C345.094 8.234 345.622 8.714 345.97 9.326C346.318 9.926 346.492 10.598 346.492 11.342C346.492 12.182 346.252 12.932 345.772 13.592C345.304 14.252 344.608 14.72 343.684 14.996L346.6 20H343.126ZM339.76 13.052H341.668C342.232 13.052 342.652 12.914 342.928 12.638C343.216 12.362 343.36 11.972 343.36 11.468C343.36 10.988 343.216 10.61 342.928 10.334C342.652 10.058 342.232 9.92 341.668 9.92H339.76V13.052ZM353.303 9.83V12.386H357.425V14.762H353.303V17.534H357.965V20H350.225V7.364H357.965V9.83H353.303Z" fill="#FFEFEC"/>
</svg>
