<svg width="827" height="238" viewBox="0 0 827 238" fill="none" xmlns="http://www.w3.org/2000/svg">
<path d="M117.147 66.3776C114.636 66.2751 112.099 66.147 109.537 65.9933C106.975 65.8395 104.233 65.6858 101.312 65.532C98.3911 65.3783 95.1626 65.2502 91.6267 65.1477C88.142 65.0452 84.1961 64.994 79.789 64.994C74.152 64.994 68.6944 65.1477 63.4161 65.4552C58.1379 65.7114 52.9108 66.2239 47.735 66.9925C42.5593 67.7612 37.3835 68.8374 32.2077 70.221C27.0319 71.6046 21.728 73.4238 16.296 75.6786C18.4996 81.8281 20.2675 87.8494 21.5999 93.7426C22.9323 99.6358 23.9572 105.247 24.6746 110.577C25.4433 115.906 25.9558 120.903 26.212 125.566C26.4682 130.229 26.5963 134.431 26.5963 138.172C26.5963 141.708 26.5195 144.834 26.3657 147.55C26.212 150.215 26.0326 152.444 25.8277 154.238C25.6227 156.39 25.3665 158.235 25.059 159.772C27.5188 153.93 29.9017 147.755 32.2077 141.247C34.565 134.688 36.7942 128.205 38.8952 121.799C40.9963 115.343 42.9436 109.116 44.7372 103.121C46.5308 97.1248 48.0938 91.744 49.4261 86.9782C50.8098 82.2124 51.9372 78.2409 52.8083 75.0637C53.6795 71.8352 54.2432 69.7854 54.4994 68.9142C55.6268 69.8367 56.9848 71.0153 58.5734 72.4502C60.2133 73.885 61.8531 75.3712 63.493 76.9085C65.1328 78.4459 66.6446 79.932 68.0282 81.3669C69.4631 82.7505 70.5649 83.9035 71.3335 84.8259C70.0524 89.5917 68.3613 94.8444 66.2602 100.584C64.1592 106.323 61.8275 112.242 59.2653 118.34C56.7542 124.439 54.1151 130.562 51.3478 136.712C48.5806 142.81 45.8902 148.601 43.2767 154.084C40.6632 159.567 38.229 164.564 35.9742 169.073C33.7707 173.583 31.9515 177.298 30.5166 180.219C29.7479 179.45 28.7999 178.4 27.6725 177.068C26.5451 175.735 25.3921 174.377 24.2134 172.994C23.0348 171.661 21.933 170.406 20.9081 169.227C19.9344 168.048 19.217 167.203 18.7558 166.69C18.8583 166.075 19.0376 165.025 19.2939 163.539C19.6013 162.001 19.8832 160.105 20.1394 157.851C20.4469 155.545 20.7031 152.88 20.9081 149.856C21.1131 146.833 21.2156 143.476 21.2156 139.787C21.2156 135.584 21.0362 131.075 20.6775 126.258C20.3188 121.389 19.6013 116.342 18.5252 111.115C17.5003 105.888 16.0142 100.507 14.0669 94.9725C12.1195 89.438 9.58288 83.8523 6.45691 78.2153C6.40567 78.2153 6.38005 78.1897 6.38005 78.1384C6.3288 78.0872 6.30318 77.959 6.30318 77.7541C6.30318 77.2416 6.48254 76.5498 6.84126 75.6786C7.19997 74.7562 7.66118 73.7825 8.22488 72.7576C8.83982 71.6815 9.48039 70.631 10.1466 69.6061C10.864 68.5299 11.5302 67.6075 12.1451 66.8388C12.4014 66.5313 13.6313 65.8139 15.8348 64.6865C18.0384 63.5079 21.0618 62.1242 24.9052 60.5356C28.7999 58.947 33.412 57.2559 38.7415 55.4623C44.1223 53.6687 50.0667 52.0289 56.5749 50.5428C63.083 49.0054 70.078 47.7499 77.5598 46.7762C85.0929 45.8026 92.9335 45.3158 101.081 45.3158C101.44 45.7257 102.004 46.4175 102.773 47.3912C103.592 48.3136 104.515 49.4154 105.54 50.6965C106.565 51.9264 107.641 53.2844 108.768 54.7705C109.947 56.2054 111.074 57.6403 112.15 59.0751C113.227 60.4588 114.2 61.7911 115.071 63.0723C115.943 64.3534 116.634 65.4552 117.147 66.3776ZM108.23 132.177C107.564 134.175 106.718 136.456 105.694 139.018C104.72 141.58 103.772 144.091 102.849 146.551C101.927 149.011 101.133 151.24 100.467 153.238C99.8516 155.237 99.5441 156.672 99.5441 157.543C99.5441 157.851 99.6978 158.004 100.005 158.004C100.569 158.004 101.415 157.671 102.542 157.005C103.669 156.339 104.95 155.468 106.385 154.391C107.871 153.315 109.409 152.137 110.997 150.856C112.586 149.574 114.098 148.319 115.533 147.089C117.019 145.808 118.351 144.655 119.53 143.63C120.708 142.605 121.605 141.836 122.22 141.324C122.681 141.785 123.219 142.374 123.834 143.092C124.501 143.809 125.116 144.476 125.679 145.09C124.552 146.218 123.143 147.601 121.451 149.241C119.76 150.83 117.916 152.47 115.917 154.161C113.97 155.852 111.92 157.543 109.768 159.234C107.666 160.925 105.591 162.437 103.541 163.769C101.543 165.102 99.6722 166.178 97.9299 166.998C96.1875 167.818 94.727 168.228 93.5484 168.228C92.7797 168.228 91.8061 167.946 90.6274 167.382C89.4488 166.87 88.3214 166.204 87.2452 165.384C86.1691 164.615 85.2467 163.744 84.478 162.77C83.7093 161.796 83.325 160.848 83.325 159.926C84.0936 156.493 84.8623 153.495 85.631 150.932C86.3997 148.37 87.1171 146.192 87.7833 144.399C88.4495 142.554 89.0388 141.068 89.5513 139.94C90.0637 138.813 90.4481 137.967 90.7043 137.404C90.0893 137.147 89.5 136.866 88.9363 136.558C88.3726 136.251 87.8089 135.943 87.2452 135.636C86.4253 136.507 85.5029 137.429 84.478 138.403C83.5043 139.377 82.505 140.35 81.4801 141.324C80.4552 142.298 79.4303 143.246 78.4054 144.168C77.3805 145.09 76.4581 145.936 75.6381 146.705L71.9485 142.938C73.2809 141.657 74.8951 140.12 76.7912 138.326C78.636 136.481 80.4552 134.636 82.2488 132.792C80.9677 132.023 79.8146 131.305 78.7897 130.639C77.7648 129.922 76.8937 129.281 76.1762 128.718C75.3051 128.103 74.5364 127.539 73.8702 127.026C73.5627 126.873 73.409 126.54 73.409 126.027C73.409 125.463 73.6396 124.669 74.1008 123.644C74.5108 122.568 75.0488 121.441 75.715 120.262C76.3812 119.032 77.0986 117.802 77.8673 116.572C78.636 115.291 79.3791 114.138 80.0965 113.113C80.8139 112.088 81.4289 111.269 81.9413 110.654C82.505 109.987 82.8637 109.654 83.0175 109.654C83.12 109.654 83.4531 109.782 84.0168 110.039C84.6317 110.295 85.2723 110.602 85.9385 110.961C86.6047 111.269 87.2196 111.627 87.7833 112.037C88.347 112.447 88.7057 112.806 88.8595 113.113C88.9107 113.37 88.9619 113.908 89.0132 114.728C89.0644 115.548 89.1157 116.547 89.1669 117.725C91.1655 118.75 93.2153 119.929 95.3164 121.261C97.4174 122.543 99.3391 123.772 101.081 124.951C103.131 126.283 105.079 127.641 106.923 129.025C107.59 129.435 108 129.947 108.153 130.562C108.358 131.177 108.384 131.715 108.23 132.177ZM165.42 157.236C165.42 157.543 165.574 157.697 165.881 157.697C166.342 157.697 167.111 157.364 168.187 156.698C169.263 156.031 170.493 155.186 171.877 154.161C173.261 153.136 174.721 151.983 176.258 150.702C177.847 149.421 179.359 148.165 180.794 146.935C182.228 145.705 183.51 144.578 184.637 143.553C185.816 142.528 186.712 141.734 187.327 141.17C187.789 141.631 188.352 142.246 189.018 143.015C189.736 143.784 190.376 144.476 190.94 145.09C189.71 146.218 188.224 147.601 186.482 149.241C184.791 150.83 182.946 152.495 180.947 154.238C179 155.98 176.976 157.722 174.875 159.465C172.774 161.156 170.724 162.668 168.725 164C166.727 165.332 164.831 166.409 163.037 167.228C161.244 168.1 159.681 168.535 158.348 168.535C157.426 168.535 156.401 168.356 155.273 167.997C154.197 167.638 153.198 167.126 152.276 166.46C151.353 165.845 150.584 165.102 149.97 164.231C149.355 163.359 149.047 162.386 149.047 161.31C149.047 160.9 149.021 160.413 148.97 159.849C148.97 159.234 149.021 158.466 149.124 157.543C149.226 156.569 149.431 155.416 149.739 154.084C150.046 152.7 150.508 151.009 151.123 149.011C149.431 150.804 147.433 152.675 145.127 154.622C142.872 156.569 140.489 158.414 137.978 160.157C135.467 161.899 132.93 163.462 130.368 164.846C127.857 166.28 125.525 167.357 123.373 168.074C123.117 168.176 122.912 168.228 122.758 168.228C122.605 168.228 122.451 168.228 122.297 168.228C121.785 168.228 121.118 167.972 120.298 167.459C119.427 166.947 118.582 166.255 117.762 165.384C116.942 164.564 116.25 163.616 115.686 162.54C115.071 161.463 114.764 160.387 114.764 159.311C114.764 159.004 114.918 157.979 115.225 156.236C115.533 154.494 116.276 152.29 117.454 149.626C118.582 146.91 120.273 143.886 122.528 140.555C124.782 137.173 127.857 133.714 131.752 130.178C133.75 128.384 135.903 126.693 138.209 125.105C140.156 123.772 142.385 122.414 144.896 121.031C147.407 119.647 150.046 118.545 152.814 117.725C152.916 117.725 152.993 117.7 153.044 117.649C153.147 117.597 153.275 117.623 153.429 117.725C154.044 117.93 154.761 118.264 155.581 118.725C156.452 119.135 157.298 119.596 158.118 120.108C158.989 120.57 159.732 121.056 160.347 121.569C161.013 122.03 161.448 122.414 161.653 122.722C161.705 122.824 161.705 122.901 161.653 122.952L161.5 123.106C159.194 124.336 157.016 125.72 154.966 127.257C152.916 128.743 151.097 130.152 149.508 131.485C147.663 133.073 145.947 134.636 144.358 136.174C140.617 139.863 138.029 143.066 136.594 145.782C135.16 148.447 134.442 150.369 134.442 151.547C134.442 152.419 134.801 152.854 135.518 152.854C136.236 152.854 137.133 152.572 138.209 152.009C139.336 151.394 140.592 150.599 141.975 149.626C143.359 148.601 144.871 147.422 146.51 146.09C148.202 144.706 149.944 143.271 151.737 141.785C153.326 140.504 154.863 139.12 156.35 137.634C157.631 136.404 158.963 134.995 160.347 133.407C161.73 131.818 162.909 130.204 163.883 128.564C163.883 128.513 163.908 128.461 163.96 128.41C164.011 128.359 164.088 128.359 164.19 128.41C164.754 128.82 165.394 129.512 166.112 130.486C166.829 131.408 167.495 132.433 168.11 133.56C168.725 134.688 169.238 135.789 169.648 136.866C170.109 137.89 170.34 138.685 170.34 139.248C169.161 141.657 168.239 143.861 167.572 145.859C166.957 147.806 166.471 149.523 166.112 151.009C165.804 152.495 165.599 153.777 165.497 154.853C165.446 155.878 165.42 156.672 165.42 157.236ZM223.071 156.006C220.919 156.006 219.048 155.647 217.46 154.93C215.769 156.723 214.001 158.414 212.156 160.003C210.311 161.54 208.492 162.898 206.698 164.077C204.905 165.307 203.137 166.28 201.394 166.998C199.652 167.715 198.012 168.125 196.475 168.228C195.706 168.228 194.579 167.895 193.093 167.228C191.658 166.562 190.248 165.691 188.865 164.615C187.43 163.59 186.2 162.411 185.175 161.079C184.099 159.695 183.561 158.312 183.561 156.928C183.561 153.546 183.894 150.164 184.56 146.782C185.226 143.348 186.072 139.966 187.097 136.635C188.07 133.304 189.172 130.05 190.402 126.873C191.581 123.644 192.708 120.544 193.784 117.572C196.398 118.75 198.934 120.057 201.394 121.492C203.905 122.927 206.237 124.618 208.389 126.565C207.621 128.103 206.852 129.871 206.083 131.869C205.315 133.868 204.571 135.943 203.854 138.095C203.137 140.248 202.47 142.4 201.855 144.552C201.241 146.705 200.702 148.703 200.241 150.548C199.78 152.393 199.421 154.033 199.165 155.468C198.909 156.851 198.781 157.851 198.781 158.466C198.781 158.875 198.858 159.26 199.011 159.619C199.216 159.926 199.524 160.08 199.934 160.08C200.754 160.08 201.65 159.824 202.624 159.311C203.649 158.799 204.725 158.132 205.853 157.312C206.98 156.441 208.107 155.442 209.235 154.315C210.413 153.136 211.541 151.906 212.617 150.625C211.695 149.036 211.233 147.448 211.233 145.859C211.233 144.783 211.387 143.502 211.695 142.016C212.053 140.478 212.514 138.89 213.078 137.25C213.642 135.61 214.257 133.97 214.923 132.33C215.64 130.639 216.358 129.076 217.075 127.641C217.844 126.207 218.561 124.951 219.228 123.875C219.945 122.799 220.586 122.004 221.149 121.492C222.328 121.953 223.558 122.594 224.839 123.414C226.12 124.182 227.299 125.028 228.375 125.95C229.451 126.821 230.322 127.693 230.988 128.564C231.706 129.384 232.116 130.076 232.218 130.639C232.218 131.715 231.962 132.971 231.45 134.406C230.937 135.841 230.22 137.404 229.297 139.095C228.426 140.735 227.35 142.477 226.069 144.322C224.839 146.115 223.481 147.935 221.995 149.779C222.302 149.882 222.61 149.984 222.917 150.087C223.276 150.138 223.686 150.164 224.147 150.164C226.197 150.164 228.016 149.959 229.605 149.549C231.193 149.139 232.705 148.55 234.14 147.781C235.575 146.961 236.984 145.962 238.368 144.783C239.751 143.604 241.263 142.246 242.903 140.709C243.364 141.17 243.954 141.785 244.671 142.554C245.44 143.271 246.055 143.912 246.516 144.476C244.363 146.628 242.314 148.447 240.366 149.933C238.47 151.368 236.574 152.547 234.678 153.469C232.833 154.34 230.963 154.981 229.067 155.391C227.171 155.801 225.172 156.006 223.071 156.006ZM295.404 145.09C290.689 149.703 286.231 153.572 282.029 156.698C277.878 159.824 273.906 162.335 270.114 164.231C266.322 166.127 262.684 167.485 259.199 168.305C255.766 169.125 252.409 169.534 249.129 169.534C247.746 169.534 246.208 169.022 244.517 167.997C242.826 166.972 241.263 165.717 239.828 164.231C238.342 162.796 237.112 161.284 236.139 159.695C235.165 158.107 234.678 156.749 234.678 155.621C234.678 151.419 235.267 147.576 236.446 144.091C237.573 140.555 239.085 137.378 240.981 134.56C242.877 131.741 245.03 129.256 247.438 127.103C249.898 124.951 252.435 123.157 255.048 121.723C257.713 120.288 260.352 119.212 262.966 118.494C265.579 117.777 267.988 117.418 270.191 117.418C271.78 117.418 273.343 117.879 274.88 118.802C276.469 119.724 277.904 120.851 279.185 122.184C280.466 123.516 281.491 124.925 282.259 126.412C283.079 127.846 283.489 129.102 283.489 130.178C283.489 131.92 282.746 133.714 281.26 135.559C279.825 137.352 277.775 139.197 275.111 141.093C272.446 142.989 269.243 144.937 265.502 146.935C261.761 148.883 257.636 150.856 253.126 152.854C252.973 154.084 252.896 155.288 252.896 156.467C252.896 158.056 253.229 159.132 253.895 159.695C254.613 160.259 255.919 160.541 257.815 160.541C261.198 160.541 264.375 159.977 267.347 158.85C270.371 157.722 273.266 156.262 276.033 154.468C278.8 152.675 281.465 150.625 284.027 148.319C286.59 146.013 289.126 143.681 291.637 141.324L295.404 145.09ZM268.346 125.873C267.321 125.873 266.194 126.437 264.964 127.565C263.734 128.641 262.504 130.076 261.274 131.869C260.045 133.663 258.866 135.738 257.739 138.095C256.611 140.402 255.637 142.81 254.818 145.321C256.714 144.091 258.558 142.784 260.352 141.401C262.197 140.017 263.837 138.582 265.272 137.096C266.706 135.559 267.859 133.996 268.731 132.407C269.602 130.819 270.037 129.23 270.037 127.641C270.037 127.18 269.884 126.77 269.576 126.412C269.32 126.053 268.91 125.873 268.346 125.873ZM307.933 158.619C308.753 158.619 309.855 158.261 311.239 157.543C312.674 156.826 314.237 155.929 315.928 154.853C317.619 153.725 319.387 152.495 321.232 151.163C323.076 149.831 324.793 148.524 326.382 147.243C328.022 145.962 329.482 144.783 330.763 143.707C332.044 142.631 332.992 141.836 333.607 141.324C334.068 141.785 334.607 142.374 335.222 143.092C335.888 143.809 336.503 144.476 337.066 145.09C335.939 146.218 334.53 147.601 332.839 149.241C331.148 150.83 329.303 152.47 327.304 154.161C325.357 155.852 323.307 157.543 321.155 159.234C319.054 160.925 316.978 162.437 314.928 163.769C312.93 165.102 311.059 166.178 309.317 166.998C307.575 167.818 306.114 168.228 304.936 168.228C303.347 168.228 301.656 167.664 299.862 166.537C298.12 165.409 296.48 164.102 294.943 162.616C293.405 161.079 292.099 159.542 291.022 158.004C289.946 156.467 289.331 155.314 289.178 154.545C289.075 154.238 289.024 153.879 289.024 153.469C289.024 153.008 289.024 152.521 289.024 152.009C289.024 149.446 289.357 146.218 290.023 142.323C290.638 138.377 291.484 134.226 292.56 129.871C293.636 125.463 294.866 121.108 296.249 116.803C297.684 112.447 299.17 108.604 300.708 105.273C303.834 98.4572 307.037 92.4102 310.316 87.132C313.647 81.8537 316.901 77.2672 320.079 73.3726C323.256 69.4267 326.305 66.1214 329.226 63.4566C332.147 60.7919 334.76 58.6395 337.066 56.9997C339.424 55.3598 341.397 54.1812 342.985 53.4638C344.625 52.7463 345.752 52.3876 346.367 52.3876C347.341 52.7463 348.315 53.2844 349.288 54.0018C350.313 54.668 351.261 55.3855 352.132 56.1541C353.004 56.9228 353.772 57.6915 354.439 58.4602C355.105 59.1776 355.592 59.7157 355.899 60.0744C356.309 60.4844 356.565 60.8943 356.668 61.3043C356.821 61.663 356.898 62.1499 356.898 62.7648C356.898 63.9947 356.591 65.6858 355.976 67.8381C355.361 69.9904 354.208 72.732 352.517 76.063C350.826 79.3427 348.468 83.2886 345.445 87.9006C342.473 92.5127 338.578 97.8935 333.761 104.043C331.506 106.913 329.123 109.834 326.612 112.806C324.46 115.368 321.975 118.161 319.156 121.185C316.338 124.208 313.442 127.103 310.47 129.871C308.984 135.508 307.933 140.478 307.318 144.783C306.755 149.088 306.473 152.444 306.473 154.853C306.473 156.441 306.601 157.466 306.857 157.927C307.113 158.389 307.472 158.619 307.933 158.619ZM320.232 102.275C319.361 104.222 318.541 106.118 317.772 107.963C317.055 109.808 316.363 111.627 315.697 113.421C317.286 111.627 318.721 109.911 320.002 108.271C321.334 106.631 322.461 105.222 323.384 104.043C324.46 102.659 325.434 101.353 326.305 100.123C329.892 95.1006 332.992 90.4885 335.606 86.2864C338.219 82.0843 340.372 78.3946 342.063 75.2174C343.754 71.989 344.984 69.3242 345.752 67.2231C346.572 65.0708 346.982 63.5335 346.982 62.6111C346.982 62.3548 346.957 62.1755 346.905 62.073C346.905 61.9192 346.777 61.8424 346.521 61.8424C346.06 61.8424 345.009 62.6111 343.37 64.1484C341.73 65.6345 339.705 68.0174 337.297 71.2971C334.94 74.5769 332.275 78.779 329.303 83.9035C326.382 88.9768 323.358 95.1006 320.232 102.275ZM442.068 159.619C442.068 160.643 442.068 161.566 442.068 162.386C442.068 163.154 442.094 163.821 442.145 164.384C447.013 160.951 451.702 156.749 456.212 151.778C460.773 146.756 465.026 141.273 468.972 135.328C472.918 129.333 476.531 122.978 479.81 116.265C483.09 109.552 485.883 102.762 488.189 95.8949C490.546 88.9768 492.365 82.1612 493.647 75.448C494.928 68.6836 495.568 62.2523 495.568 56.1541C495.568 54.4118 495.517 52.9257 495.415 51.6958C495.312 50.4147 495.184 49.3385 495.03 48.4673C494.876 47.5962 494.723 46.93 494.569 46.4688C494.466 45.9563 494.39 45.572 494.338 45.3158L517.168 67.8381C515.58 76.8573 513.12 85.6202 509.789 94.127C506.458 102.582 502.589 110.602 498.182 118.187C493.775 125.72 489.009 132.74 483.884 139.248C478.811 145.757 473.686 151.573 468.511 156.698C463.386 161.771 458.39 166.075 453.521 169.611C448.704 173.147 444.374 175.735 440.531 177.375C440.018 177.631 439.557 177.785 439.147 177.836C438.737 177.939 438.455 177.99 438.302 177.99C437.277 177.99 436.226 177.631 435.15 176.914C434.125 176.248 433.151 175.428 432.229 174.454C431.358 173.532 430.564 172.584 429.846 171.61C429.18 170.688 428.693 169.944 428.386 169.381C428.283 169.176 428.129 168.843 427.924 168.381C427.771 167.92 427.617 167.382 427.463 166.767C427.309 166.204 427.156 165.614 427.002 164.999C426.899 164.436 426.848 163.898 426.848 163.385C426.848 161.95 426.874 160.157 426.925 158.004C427.028 155.801 427.13 153.367 427.233 150.702C414.267 163.974 402.379 172.865 391.566 177.375C391.002 177.631 390.49 177.785 390.028 177.836C389.618 177.939 389.337 177.99 389.183 177.99C388.158 177.99 387.082 177.58 385.954 176.76C384.878 175.94 383.828 174.992 382.803 173.916C381.829 172.84 380.958 171.764 380.189 170.688C379.472 169.611 378.959 168.791 378.652 168.228C378.396 167.818 378.14 167.203 377.883 166.383C377.627 165.614 377.499 164.717 377.499 163.693C377.499 161.028 377.781 157.441 378.344 152.931C378.908 148.37 379.728 143.169 380.804 137.327C381.88 131.485 383.136 125.13 384.571 118.264C386.057 111.397 387.722 104.299 389.567 96.9711C391.412 89.643 393.385 82.2124 395.486 74.6793C397.587 67.095 399.791 59.7157 402.097 52.5413C402.865 53.3613 403.813 54.4374 404.941 55.7698C406.068 57.1022 407.247 58.5371 408.477 60.0744C409.707 61.5605 410.911 63.0723 412.09 64.6096C413.319 66.147 414.396 67.5306 415.318 68.7605C416.292 69.9904 417.06 71.0153 417.624 71.8352C418.188 72.6039 418.47 72.9882 418.47 72.9882C415.702 81.085 413.089 89.3099 410.629 97.6629C408.221 106.016 405.94 114.215 403.788 122.261C401.687 130.306 399.714 138.07 397.869 145.552C396.024 153.033 394.333 159.952 392.796 166.306C399.509 162.206 405.914 157.338 412.013 151.701C418.111 146.013 423.62 139.761 428.539 132.945C429.001 128.179 429.564 123.491 430.23 118.878C430.948 114.215 431.768 110.039 432.69 106.349C433.613 102.659 434.663 99.6871 435.842 97.4323C437.02 95.1262 438.353 93.9732 439.839 93.9732C440.505 93.9732 441.453 94.4088 442.683 95.28C443.964 96.1511 445.245 97.2017 446.526 98.4316C447.859 99.6102 449.089 100.814 450.216 102.044C451.395 103.223 452.24 104.145 452.753 104.812C453.009 105.119 453.265 105.58 453.521 106.195C453.778 106.759 453.906 107.553 453.906 108.578C453.906 111.038 453.675 113.293 453.214 115.343C452.753 117.392 452.087 119.365 451.215 121.261C450.344 123.106 449.294 124.951 448.064 126.796C446.885 128.641 445.578 130.588 444.144 132.638C443.734 135.456 443.375 138.377 443.067 141.401C442.811 144.014 442.581 146.91 442.376 150.087C442.171 153.264 442.068 156.441 442.068 159.619ZM510.096 168.228C509.328 168.228 508.354 167.946 507.175 167.382C505.997 166.87 504.869 166.204 503.793 165.384C502.717 164.615 501.795 163.744 501.026 162.77C500.257 161.796 499.873 160.848 499.873 159.926C500.385 157.671 501.077 155.083 501.948 152.162C502.819 149.241 503.767 146.269 504.792 143.246C505.766 140.222 506.817 137.276 507.944 134.406C509.02 131.485 509.994 128.897 510.865 126.642C511.787 124.387 512.582 122.568 513.248 121.185C513.914 119.801 514.35 119.109 514.555 119.109C514.862 119.109 515.631 119.442 516.861 120.108C518.091 120.775 519.372 121.594 520.704 122.568C522.088 123.491 523.318 124.49 524.394 125.566C525.47 126.591 526.008 127.488 526.008 128.256C526.008 128.41 525.982 128.615 525.931 128.871C525.88 129.076 525.803 129.358 525.7 129.717C525.291 130.998 524.752 132.51 524.086 134.252C523.471 135.994 522.805 137.814 522.088 139.71C521.37 141.555 520.653 143.425 519.935 145.321C519.218 147.166 518.577 148.908 518.014 150.548C517.45 152.188 516.989 153.623 516.63 154.853C516.271 156.083 516.092 156.979 516.092 157.543C516.092 157.851 516.246 158.004 516.553 158.004C517.117 158.004 517.962 157.671 519.09 157.005C520.217 156.339 521.498 155.468 522.933 154.391C524.419 153.315 525.957 152.137 527.545 150.856C529.134 149.574 530.646 148.319 532.081 147.089C533.567 145.808 534.899 144.655 536.078 143.63C537.256 142.605 538.153 141.836 538.768 141.324C539.229 141.785 539.767 142.374 540.382 143.092C541.048 143.809 541.663 144.476 542.227 145.09C541.1 146.218 539.69 147.601 537.999 149.241C536.308 150.83 534.463 152.47 532.465 154.161C530.518 155.852 528.468 157.543 526.315 159.234C524.214 160.925 522.165 162.437 520.166 163.769C518.167 165.102 516.297 166.178 514.555 166.998C512.812 167.818 511.326 168.228 510.096 168.228ZM540.536 95.6643C540.485 95.8693 540.28 96.3818 539.921 97.2017C539.614 97.9704 539.229 98.8928 538.768 99.9689C538.307 100.994 537.769 102.096 537.154 103.274C536.59 104.402 536.026 105.452 535.463 106.426C534.899 107.4 534.361 108.219 533.848 108.886C533.336 109.501 532.926 109.808 532.619 109.808C531.696 109.757 530.569 109.475 529.236 108.962C527.955 108.45 526.7 107.886 525.47 107.271C524.291 106.605 523.266 105.965 522.395 105.35C521.575 104.735 521.165 104.299 521.165 104.043C521.165 102.967 521.473 101.583 522.088 99.8921C522.703 98.1497 523.42 96.4842 524.24 94.8956C525.06 93.2558 525.88 91.8465 526.7 90.6679C527.571 89.4893 528.237 88.8999 528.698 88.8999C529.621 88.8999 530.748 89.2074 532.081 89.8223C533.413 90.386 534.694 91.0522 535.924 91.8209C537.205 92.5896 538.281 93.3583 539.152 94.127C540.075 94.8444 540.536 95.3568 540.536 95.6643ZM545.532 168.228C544.661 168.228 543.508 167.818 542.073 166.998C540.69 166.229 539.332 165.256 537.999 164.077C536.667 162.949 535.514 161.771 534.54 160.541C533.567 159.311 533.08 158.261 533.08 157.389C533.08 155.852 533.515 153.418 534.387 150.087C535.207 146.756 536.308 142.964 537.692 138.71C539.076 134.406 540.639 129.819 542.381 124.951C544.174 120.083 545.968 115.317 547.762 110.654H536.923H536.846C536.795 110.654 536.769 110.602 536.769 110.5C536.769 110.192 536.898 109.757 537.154 109.193C537.359 108.578 537.641 107.963 537.999 107.348C538.307 106.682 538.691 106.093 539.152 105.58C539.562 105.017 539.972 104.658 540.382 104.504L550.375 104.043C551.81 100.558 553.168 97.3554 554.449 94.4344C555.782 91.4622 556.96 88.9256 557.985 86.8245C558.241 86.2608 558.498 85.6715 558.754 85.0565C559.061 84.3903 559.471 83.7498 559.984 83.1348C560.547 82.4686 561.265 81.8024 562.136 81.1363C563.058 80.4188 564.288 79.7014 565.826 78.984C566.953 78.4203 568.311 77.8053 569.9 77.1391C571.539 76.4729 573.128 75.858 574.665 75.2943C576.254 74.7306 577.689 74.2694 578.97 73.9107C580.251 73.5007 581.174 73.2957 581.737 73.2957C582.25 73.2957 582.506 73.3982 582.506 73.6032V73.7569C582.506 73.8082 582.455 73.9363 582.352 74.1413C582.045 74.6537 581.481 75.7811 580.661 77.5235C579.841 79.2146 578.816 81.3669 577.586 83.9804C576.408 86.5426 575.075 89.4893 573.589 92.8202C572.154 96.0999 570.668 99.5846 569.131 103.274L587.579 102.582C588.092 102.582 588.245 102.89 588.04 103.505C587.835 104.12 587.451 104.837 586.887 105.657C586.324 106.477 585.658 107.323 584.889 108.194C584.171 109.065 583.557 109.731 583.044 110.192C582.942 110.295 582.737 110.397 582.429 110.5C582.122 110.602 581.737 110.654 581.276 110.654H566.056C564.211 115.112 562.443 119.622 560.752 124.182C559.061 128.743 557.549 133.073 556.217 137.173C554.885 141.273 553.809 145.039 552.989 148.473C552.22 151.906 551.836 154.725 551.836 156.928C551.836 157.236 551.989 157.389 552.297 157.389C552.861 157.389 553.706 157.082 554.833 156.467C555.961 155.801 557.216 154.955 558.6 153.93C560.035 152.905 561.547 151.778 563.135 150.548C564.724 149.318 566.236 148.114 567.67 146.935C569.105 145.705 570.386 144.604 571.514 143.63C572.692 142.605 573.589 141.836 574.204 141.324C574.665 141.785 575.204 142.374 575.818 143.092C576.485 143.809 577.1 144.476 577.663 145.09C576.536 146.218 575.127 147.601 573.436 149.241C571.744 150.83 569.9 152.47 567.901 154.161C565.954 155.852 563.904 157.543 561.752 159.234C559.651 160.925 557.575 162.437 555.525 163.769C553.527 165.102 551.656 166.178 549.914 166.998C548.172 167.818 546.711 168.228 545.532 168.228ZM617.097 157.543C617.865 157.543 618.89 157.21 620.171 156.544C621.452 155.878 622.862 155.032 624.399 154.007C625.988 152.982 627.602 151.855 629.242 150.625C630.882 149.344 632.445 148.114 633.931 146.935C635.468 145.705 636.826 144.604 638.005 143.63C639.183 142.605 640.08 141.836 640.695 141.324C641.156 141.785 641.694 142.374 642.309 143.092C642.976 143.809 643.59 144.476 644.154 145.09C643.027 146.218 641.618 147.576 639.926 149.164C638.235 150.702 636.416 152.29 634.469 153.93C632.521 155.57 630.497 157.184 628.396 158.773C626.295 160.362 624.245 161.796 622.247 163.078C620.248 164.359 618.378 165.384 616.635 166.152C614.893 166.921 613.433 167.305 612.254 167.305C611.28 167.305 610.127 167.049 608.795 166.537C607.514 166.075 606.258 165.46 605.028 164.692C603.85 163.974 602.825 163.18 601.954 162.309C601.134 161.386 600.724 160.49 600.724 159.619C600.775 157.415 601.185 154.853 601.954 151.932C602.722 149.011 603.619 146.013 604.644 142.938C605.72 139.863 606.848 136.84 608.026 133.868C609.256 130.844 610.383 128.154 611.408 125.797C610.998 125.899 610.204 126.463 609.025 127.488C607.847 128.513 606.412 129.922 604.721 131.715C603.081 133.458 601.262 135.584 599.263 138.095C597.316 140.555 595.369 143.322 593.421 146.397C591.525 149.472 589.706 152.803 587.964 156.39C586.221 159.926 584.761 163.667 583.582 167.613C583.428 168.176 583.198 168.586 582.89 168.843C582.634 169.099 582.173 169.227 581.507 169.227C581.045 169.227 580.328 168.996 579.354 168.535C578.381 168.074 577.356 167.51 576.28 166.844C575.204 166.229 574.153 165.563 573.128 164.846C572.103 164.128 571.283 163.488 570.668 162.924C570.361 162.565 570.105 162.232 569.9 161.925C569.695 161.617 569.592 161.156 569.592 160.541C569.592 157.159 570.156 153.008 571.283 148.088C572.411 143.169 573.974 137.839 575.972 132.1C577.92 126.309 580.2 120.288 582.813 114.036C585.478 107.733 588.297 101.558 591.269 95.5106C594.292 89.4636 597.418 83.7241 600.647 78.2921C603.927 72.8089 607.129 67.9918 610.255 63.841C613.433 59.6388 616.456 56.2823 619.326 53.7712C622.247 51.209 624.912 49.851 627.32 49.6972C628.499 50.0559 629.677 50.6196 630.856 51.3883C632.086 52.157 633.239 53.0026 634.315 53.925C635.391 54.8474 636.339 55.7442 637.159 56.6154C638.03 57.4865 638.697 58.2296 639.158 58.8445C639.465 59.2545 639.67 59.7413 639.773 60.305C639.875 60.8687 639.926 61.2787 639.926 61.5349C639.926 63.3797 639.414 65.6602 638.389 68.3762C637.364 71.0922 635.929 74.1413 634.084 77.5235C632.24 80.9057 629.985 84.5441 627.32 88.4387C624.707 92.2821 621.786 96.2536 618.557 100.353C615.38 104.402 611.921 108.501 608.18 112.652C604.49 116.803 600.621 120.826 596.573 124.72C595.548 127.488 594.626 130.178 593.806 132.792C596.573 129.922 599.109 127.513 601.416 125.566C603.722 123.619 605.771 122.081 607.565 120.954C609.359 119.775 610.87 118.955 612.1 118.494C613.381 117.982 614.355 117.725 615.021 117.725C615.482 117.725 616.302 118.033 617.481 118.648C618.66 119.212 619.889 119.903 621.171 120.723C622.452 121.543 623.63 122.389 624.707 123.26C625.783 124.131 626.449 124.849 626.705 125.412C626.808 125.668 626.808 126.027 626.705 126.488C626.603 126.898 626.5 127.231 626.398 127.488C625.936 128.871 625.373 130.486 624.707 132.33C624.092 134.124 623.4 136.046 622.631 138.095C621.914 140.094 621.196 142.118 620.479 144.168C619.761 146.218 619.121 148.114 618.557 149.856C617.993 151.547 617.532 153.059 617.173 154.391C616.815 155.673 616.635 156.569 616.635 157.082C616.635 157.389 616.789 157.543 617.097 157.543ZM610.332 91.4366C609.102 94.0501 607.898 96.6636 606.719 99.2771C605.592 101.839 604.49 104.427 603.414 107.041C606.848 102.634 610.178 98.1753 613.407 93.6657C616.635 89.1049 619.505 84.7491 622.016 80.5982C624.578 76.3961 626.628 72.527 628.166 68.9911C629.703 65.4552 630.472 62.4829 630.472 60.0744C630.472 58.947 630.267 58.3833 629.857 58.3833C629.242 58.3833 628.294 59.2289 627.013 60.92C625.783 62.5598 624.297 64.8402 622.554 67.7612C620.812 70.6822 618.89 74.1669 616.789 78.2153C614.739 82.2637 612.587 86.6708 610.332 91.4366ZM731.63 169.688C734.295 162.001 736.908 155.211 739.47 149.318C742.033 143.374 744.416 137.942 746.619 133.022C744.108 136.814 741.751 140.145 739.547 143.015C737.395 145.885 735.499 148.293 733.859 150.241C731.912 152.547 730.118 154.52 728.478 156.159C724.584 159.9 721.099 163.129 718.024 165.845C715.001 168.561 712.285 170.79 709.876 172.532C707.519 174.326 705.444 175.658 703.65 176.529C701.856 177.401 700.268 177.836 698.884 177.836C697.808 177.836 696.655 177.452 695.425 176.683C694.246 175.966 693.068 175.043 691.889 173.916C690.762 172.84 689.686 171.687 688.661 170.457C687.636 169.227 686.739 168.125 685.97 167.152C684.689 165.512 683.972 163.385 683.818 160.772C683.664 158.158 683.587 154.93 683.587 151.086C683.587 145.193 684.074 139.018 685.048 132.561C686.073 126.104 687.508 119.622 689.353 113.113C691.197 106.554 693.427 100.046 696.04 93.5889C698.654 87.0807 701.575 80.8544 704.803 74.9099C708.031 68.9142 711.516 63.3029 715.257 58.0758C718.998 52.8488 722.918 48.1599 727.018 44.009C728.094 45.1364 729.324 46.4432 730.708 47.9293C732.091 49.3641 733.475 50.8503 734.858 52.3876C736.293 53.925 737.651 55.4623 738.932 56.9997C740.265 58.4858 741.392 59.7926 742.315 60.92C737.959 64.8659 733.859 69.3242 730.016 74.295C726.224 79.2146 722.739 84.4928 719.562 90.1298C716.384 95.7156 713.54 101.558 711.029 107.656C708.518 113.703 706.392 119.852 704.649 126.104C702.958 132.305 701.626 138.505 700.652 144.706C699.73 150.907 699.243 156.903 699.192 162.693C704.88 159.824 710.107 156.339 714.873 152.239C719.639 148.14 723.994 143.681 727.94 138.864C731.937 133.996 735.55 128.897 738.779 123.567C742.058 118.238 745.005 112.857 747.619 107.425C750.283 101.993 752.641 96.638 754.69 91.3597C756.791 86.0814 758.688 81.1106 760.379 76.4473C762.07 71.784 763.556 67.5306 764.837 63.6872C766.169 59.8438 767.374 56.641 768.45 54.0787C768.962 54.8474 769.654 55.7954 770.525 56.9228C771.396 58.0502 772.319 59.2801 773.292 60.6125C774.317 61.8936 775.342 63.2004 776.367 64.5328C777.443 65.8651 778.417 67.1207 779.288 68.2993C780.211 69.4267 781.005 70.426 781.671 71.2971C782.337 72.1171 782.773 72.6808 782.978 72.9882C780.211 80.1114 777.725 86.8245 775.522 93.1277C773.318 99.3796 771.268 105.401 769.372 111.192C767.476 116.931 765.682 122.568 763.991 128.103C762.352 133.586 760.686 139.172 758.995 144.86C757.304 150.497 755.51 156.313 753.614 162.309C751.769 168.253 749.745 174.582 747.542 181.295L731.63 169.688ZM771.601 142.784C772.78 141.657 774.138 140.376 775.675 138.941C777.161 137.506 778.648 135.943 780.134 134.252C781.671 132.561 783.08 130.742 784.361 128.794C785.694 126.847 786.744 124.746 787.513 122.491C787.718 121.313 788.025 120.083 788.435 118.802C788.897 117.469 789.383 116.265 789.896 115.189C790.46 114.113 790.998 113.216 791.51 112.498C792.023 111.781 792.484 111.422 792.894 111.422C793.509 111.781 794.431 112.473 795.661 113.498C796.891 114.471 798.121 115.522 799.351 116.649C800.581 117.777 801.657 118.827 802.579 119.801C803.553 120.723 804.04 121.287 804.04 121.492C803.425 123.849 803.117 125.976 803.117 127.872C803.168 129.768 803.322 131.639 803.578 133.483C803.886 135.328 804.193 137.301 804.501 139.402C804.86 141.452 805.039 143.835 805.039 146.551C805.039 148.191 804.757 150.087 804.193 152.239C803.681 154.34 802.759 156.236 801.426 157.927C804.04 156.39 806.628 154.673 809.19 152.777C811.752 150.83 814.032 149.011 816.031 147.32C818.388 145.321 820.643 143.322 822.795 141.324L826.255 145.09C824.563 146.679 822.719 148.37 820.72 150.164C818.773 151.957 816.723 153.725 814.571 155.468C812.47 157.21 810.317 158.875 808.114 160.464C805.91 162.053 803.732 163.462 801.58 164.692C799.428 165.922 797.352 166.895 795.354 167.613C793.355 168.33 791.485 168.689 789.742 168.689C788.256 168.689 786.616 168.33 784.823 167.613C783.029 166.895 781.338 166.024 779.749 164.999C778.161 163.974 776.777 162.898 775.598 161.771C774.42 160.643 773.728 159.695 773.523 158.927C773.523 158.824 773.626 158.619 773.831 158.312C774.035 157.953 774.292 157.594 774.599 157.236C774.855 156.877 775.137 156.569 775.445 156.313C775.701 156.006 775.906 155.852 776.06 155.852C776.367 155.852 776.982 156.083 777.905 156.544C778.827 157.005 780.364 157.236 782.517 157.236C783.695 157.236 784.695 156.928 785.514 156.313C786.386 155.698 787.103 154.878 787.667 153.853C788.23 152.829 788.64 151.65 788.897 150.317C789.153 148.985 789.281 147.576 789.281 146.09C789.281 143.937 789.178 141.862 788.974 139.863C788.769 137.814 788.538 135.841 788.282 133.945C787.411 134.97 786.411 136.046 785.284 137.173C784.156 138.3 783.003 139.428 781.825 140.555C780.697 141.631 779.544 142.708 778.366 143.784C777.238 144.809 776.213 145.731 775.291 146.551L771.601 142.784Z" fill="white"/>
<path d="M346.688 20.126C345.764 20.126 344.936 19.976 344.204 19.676C343.472 19.376 342.884 18.932 342.44 18.344C342.008 17.756 341.78 17.048 341.756 16.22H345.032C345.08 16.688 345.242 17.048 345.518 17.3C345.794 17.54 346.154 17.66 346.598 17.66C347.054 17.66 347.414 17.558 347.678 17.354C347.942 17.138 348.074 16.844 348.074 16.472C348.074 16.16 347.966 15.902 347.75 15.698C347.546 15.494 347.288 15.326 346.976 15.194C346.676 15.062 346.244 14.912 345.68 14.744C344.864 14.492 344.198 14.24 343.682 13.988C343.166 13.736 342.722 13.364 342.35 12.872C341.978 12.38 341.792 11.738 341.792 10.946C341.792 9.77 342.218 8.852 343.07 8.192C343.922 7.52 345.032 7.184 346.4 7.184C347.792 7.184 348.914 7.52 349.766 8.192C350.618 8.852 351.074 9.776 351.134 10.964H347.804C347.78 10.556 347.63 10.238 347.354 10.01C347.078 9.77 346.724 9.65 346.292 9.65C345.92 9.65 345.62 9.752 345.392 9.956C345.164 10.148 345.05 10.43 345.05 10.802C345.05 11.21 345.242 11.528 345.626 11.756C346.01 11.984 346.61 12.23 347.426 12.494C348.242 12.77 348.902 13.034 349.406 13.286C349.922 13.538 350.366 13.904 350.738 14.384C351.11 14.864 351.296 15.482 351.296 16.238C351.296 16.958 351.11 17.612 350.738 18.2C350.378 18.788 349.85 19.256 349.154 19.604C348.458 19.952 347.636 20.126 346.688 20.126ZM358.068 9.83V12.386H362.19V14.762H358.068V17.534H362.73V20H354.99V7.364H362.73V9.83H358.068ZM374.395 17.768H369.679L368.923 20H365.701L370.273 7.364H373.837L378.409 20H375.151L374.395 17.768ZM373.603 15.392L372.037 10.766L370.489 15.392H373.603ZM388.044 20L385.416 15.23H384.678V20H381.6V7.364H386.766C387.762 7.364 388.608 7.538 389.304 7.886C390.012 8.234 390.54 8.714 390.888 9.326C391.236 9.926 391.41 10.598 391.41 11.342C391.41 12.182 391.17 12.932 390.69 13.592C390.222 14.252 389.526 14.72 388.602 14.996L391.518 20H388.044ZM384.678 13.052H386.586C387.15 13.052 387.57 12.914 387.846 12.638C388.134 12.362 388.278 11.972 388.278 11.468C388.278 10.988 388.134 10.61 387.846 10.334C387.57 10.058 387.15 9.92 386.586 9.92H384.678V13.052ZM394.62 13.664C394.62 12.416 394.89 11.306 395.43 10.334C395.97 9.35 396.72 8.588 397.68 8.048C398.652 7.496 399.75 7.22 400.974 7.22C402.474 7.22 403.758 7.616 404.826 8.408C405.894 9.2 406.608 10.28 406.968 11.648H403.584C403.332 11.12 402.972 10.718 402.504 10.442C402.048 10.166 401.526 10.028 400.938 10.028C399.99 10.028 399.222 10.358 398.634 11.018C398.046 11.678 397.752 12.56 397.752 13.664C397.752 14.768 398.046 15.65 398.634 16.31C399.222 16.97 399.99 17.3 400.938 17.3C401.526 17.3 402.048 17.162 402.504 16.886C402.972 16.61 403.332 16.208 403.584 15.68H406.968C406.608 17.048 405.894 18.128 404.826 18.92C403.758 19.7 402.474 20.09 400.974 20.09C399.75 20.09 398.652 19.82 397.68 19.28C396.72 18.728 395.97 17.966 395.43 16.994C394.89 16.022 394.62 14.912 394.62 13.664ZM421.597 7.364V20H418.519V14.798H413.731V20H410.653V7.364H413.731V12.314H418.519V7.364H421.597ZM440.324 7.364V9.83H436.976V20H433.898V9.83H430.55V7.364H440.324ZM449.644 20.126C448.456 20.126 447.364 19.85 446.368 19.298C445.384 18.746 444.598 17.978 444.01 16.994C443.434 15.998 443.146 14.882 443.146 13.646C443.146 12.41 443.434 11.3 444.01 10.316C444.598 9.332 445.384 8.564 446.368 8.012C447.364 7.46 448.456 7.184 449.644 7.184C450.832 7.184 451.918 7.46 452.902 8.012C453.898 8.564 454.678 9.332 455.242 10.316C455.818 11.3 456.106 12.41 456.106 13.646C456.106 14.882 455.818 15.998 455.242 16.994C454.666 17.978 453.886 18.746 452.902 19.298C451.918 19.85 450.832 20.126 449.644 20.126ZM449.644 17.318C450.652 17.318 451.456 16.982 452.056 16.31C452.668 15.638 452.974 14.75 452.974 13.646C452.974 12.53 452.668 11.642 452.056 10.982C451.456 10.31 450.652 9.974 449.644 9.974C448.624 9.974 447.808 10.304 447.196 10.964C446.596 11.624 446.296 12.518 446.296 13.646C446.296 14.762 446.596 15.656 447.196 16.328C447.808 16.988 448.624 17.318 449.644 17.318ZM462.643 7.364V14.924C462.643 15.68 462.829 16.262 463.201 16.67C463.573 17.078 464.119 17.282 464.839 17.282C465.559 17.282 466.111 17.078 466.495 16.67C466.879 16.262 467.071 15.68 467.071 14.924V7.364H470.149V14.906C470.149 16.034 469.909 16.988 469.429 17.768C468.949 18.548 468.301 19.136 467.485 19.532C466.681 19.928 465.781 20.126 464.785 20.126C463.789 20.126 462.895 19.934 462.103 19.55C461.323 19.154 460.705 18.566 460.249 17.786C459.793 16.994 459.565 16.034 459.565 14.906V7.364H462.643ZM480.554 20L477.926 15.23H477.188V20H474.11V7.364H479.276C480.272 7.364 481.118 7.538 481.814 7.886C482.522 8.234 483.05 8.714 483.398 9.326C483.746 9.926 483.92 10.598 483.92 11.342C483.92 12.182 483.68 12.932 483.2 13.592C482.732 14.252 482.036 14.72 481.112 14.996L484.028 20H480.554ZM477.188 13.052H479.096C479.66 13.052 480.08 12.914 480.356 12.638C480.644 12.362 480.788 11.972 480.788 11.468C480.788 10.988 480.644 10.61 480.356 10.334C480.08 10.058 479.66 9.92 479.096 9.92H477.188V13.052Z" fill="#FFEFEC"/>
</svg>
